<?xml version="1.0" encoding="utf-8" standalone="no"?>
<!DOCTYPE svg PUBLIC "-//W3C//DTD SVG 1.1//EN"
  "http://www.w3.org/Graphics/SVG/1.1/DTD/svg11.dtd">
<svg xmlns:xlink="http://www.w3.org/1999/xlink" width="799.195pt" height="386.647375pt" viewBox="0 0 799.195 386.647375" xmlns="http://www.w3.org/2000/svg" version="1.1">
 <metadata>
  <rdf:RDF xmlns:dc="http://purl.org/dc/elements/1.1/" xmlns:cc="http://creativecommons.org/ns#" xmlns:rdf="http://www.w3.org/1999/02/22-rdf-syntax-ns#">
   <cc:Work>
    <dc:type rdf:resource="http://purl.org/dc/dcmitype/StillImage"/>
    <dc:date>2026-05-19T21:41:25.567641</dc:date>
    <dc:format>image/svg+xml</dc:format>
    <dc:creator>
     <cc:Agent>
      <dc:title>Matplotlib v3.10.9, https://matplotlib.org/</dc:title>
     </cc:Agent>
    </dc:creator>
   </cc:Work>
  </rdf:RDF>
 </metadata>
 <defs>
  <style type="text/css">*{stroke-linejoin: round; stroke-linecap: butt}</style>
 </defs>
 <g id="figure_1">
  <g id="patch_1">
   <path d="M 0 386.647375 
L 799.195 386.647375 
L 799.195 0 
L 0 0 
z
" style="fill: #ffffff"/>
  </g>
  <g id="axes_1">
   <g id="patch_2">
    <path d="M 124.3325 347.488 
L 394.195 347.488 
L 394.195 66.271594 
L 124.3325 66.271594 
z
" style="fill: #ffffff"/>
   </g>
   <g id="patch_3">
    <path d="M 124.3325 334.705436 
L 135.832171 334.705436 
L 135.832171 308.484792 
L 124.3325 308.484792 
z
" clip-path="url(#pf6b99fcc0f)" style="fill: #333333"/>
   </g>
   <g id="patch_4">
    <path d="M 124.3325 301.929631 
L 141.572442 301.929631 
L 141.572442 275.708987 
L 124.3325 275.708987 
z
" clip-path="url(#pf6b99fcc0f)" style="fill: #333333"/>
   </g>
   <g id="patch_5">
    <path d="M 124.3325 269.153826 
L 164.608118 269.153826 
L 164.608118 242.933182 
L 124.3325 242.933182 
z
" clip-path="url(#pf6b99fcc0f)" style="fill: #333333"/>
   </g>
   <g id="patch_6">
    <path d="M 124.3325 236.378021 
L 175.488366 236.378021 
L 175.488366 210.157377 
L 124.3325 210.157377 
z
" clip-path="url(#pf6b99fcc0f)" style="fill: #333333"/>
   </g>
   <g id="patch_7">
    <path d="M 124.3325 203.602216 
L 176.23059 203.602216 
L 176.23059 177.381572 
L 124.3325 177.381572 
z
" clip-path="url(#pf6b99fcc0f)" style="fill: #333333"/>
   </g>
   <g id="patch_8">
    <path d="M 124.3325 170.826411 
L 186.77539 170.826411 
L 186.77539 144.605768 
L 124.3325 144.605768 
z
" clip-path="url(#pf6b99fcc0f)" style="fill: #333333"/>
   </g>
   <g id="patch_9">
    <path d="M 124.3325 138.050607 
L 354.23671 138.050607 
L 354.23671 111.829963 
L 124.3325 111.829963 
z
" clip-path="url(#pf6b99fcc0f)" style="fill: #333333"/>
   </g>
   <g id="patch_10">
    <path d="M 124.3325 105.274802 
L 381.344405 105.274802 
L 381.344405 79.054158 
L 124.3325 79.054158 
z
" clip-path="url(#pf6b99fcc0f)" style="fill: #333333"/>
   </g>
   <g id="matplotlib.axis_1">
    <g id="xtick_1">
     <g id="line2d_1">
      <defs>
       <path id="m7ee37d69b8" d="M 0 0 
L 0 3.5 
" style="stroke: #111111; stroke-width: 0.8"/>
      </defs>
      <g>
       <use xlink:href="#m7ee37d69b8" x="124.3325" y="347.488" style="fill: #111111; stroke: #111111; stroke-width: 0.8"/>
      </g>
     </g>
     <g id="text_1">
      <!-- 0.0 -->
      <g style="fill: #111111" transform="translate(117.264531 362.48175) scale(0.1 -0.1)">
       <defs>
        <path id="MicrosoftYaHei-30" d="M 284 2325 
Q 284 3606 709 4264 
Q 1134 4922 1941 4922 
Q 3478 4922 3478 2441 
Q 3478 1216 3045 567 
Q 2613 -81 1831 -81 
Q 1094 -81 689 534 
Q 284 1150 284 2325 
z
M 909 2353 
Q 909 425 1888 425 
Q 2850 425 2850 2384 
Q 2850 4413 1906 4413 
Q 909 4413 909 2353 
z
" transform="scale(0.015625)"/>
        <path id="MicrosoftYaHei-2e" d="M 372 322 
Q 372 491 487 606 
Q 603 722 775 722 
Q 950 722 1065 605 
Q 1181 488 1181 322 
Q 1181 159 1065 42 
Q 950 -75 772 -75 
Q 600 -75 486 42 
Q 372 159 372 322 
z
" transform="scale(0.015625)"/>
       </defs>
       <use xlink:href="#MicrosoftYaHei-30"/>
       <use xlink:href="#MicrosoftYaHei-2e" transform="translate(58.642578 0)"/>
       <use xlink:href="#MicrosoftYaHei-30" transform="translate(82.714844 0)"/>
      </g>
     </g>
    </g>
    <g id="xtick_2">
     <g id="line2d_2">
      <g>
       <use xlink:href="#m7ee37d69b8" x="167.907105" y="347.488" style="fill: #111111; stroke: #111111; stroke-width: 0.8"/>
      </g>
     </g>
     <g id="text_2">
      <!-- 0.1 -->
      <g style="fill: #111111" transform="translate(160.839136 362.48175) scale(0.1 -0.1)">
       <defs>
        <path id="MicrosoftYaHei-31" d="M 1781 0 
L 1781 4141 
Q 1638 3997 1295 3819 
Q 953 3641 663 3569 
L 663 4169 
Q 1047 4275 1484 4508 
Q 1922 4741 2156 4947 
L 2388 4947 
L 2388 0 
L 1781 0 
z
" transform="scale(0.015625)"/>
       </defs>
       <use xlink:href="#MicrosoftYaHei-30"/>
       <use xlink:href="#MicrosoftYaHei-2e" transform="translate(58.642578 0)"/>
       <use xlink:href="#MicrosoftYaHei-31" transform="translate(82.714844 0)"/>
      </g>
     </g>
    </g>
    <g id="xtick_3">
     <g id="line2d_3">
      <g>
       <use xlink:href="#m7ee37d69b8" x="211.481709" y="347.488" style="fill: #111111; stroke: #111111; stroke-width: 0.8"/>
      </g>
     </g>
     <g id="text_3">
      <!-- 0.2 -->
      <g style="fill: #111111" transform="translate(204.41374 362.48175) scale(0.1 -0.1)">
       <defs>
        <path id="MicrosoftYaHei-32" d="M 2666 3572 
Q 2666 3963 2419 4186 
Q 2172 4409 1747 4409 
Q 1447 4409 1140 4256 
Q 834 4103 569 3819 
L 569 4413 
Q 806 4659 1107 4790 
Q 1409 4922 1816 4922 
Q 2472 4922 2872 4570 
Q 3272 4219 3272 3619 
Q 3272 3084 3026 2693 
Q 2781 2303 2188 1894 
Q 1581 1475 1376 1294 
Q 1172 1113 1090 947 
Q 1009 781 1009 544 
L 3416 544 
L 3416 0 
L 372 0 
L 372 241 
Q 372 659 486 951 
Q 600 1244 862 1520 
Q 1125 1797 1681 2184 
Q 2250 2584 2458 2886 
Q 2666 3188 2666 3572 
z
" transform="scale(0.015625)"/>
       </defs>
       <use xlink:href="#MicrosoftYaHei-30"/>
       <use xlink:href="#MicrosoftYaHei-2e" transform="translate(58.642578 0)"/>
       <use xlink:href="#MicrosoftYaHei-32" transform="translate(82.714844 0)"/>
      </g>
     </g>
    </g>
    <g id="xtick_4">
     <g id="line2d_4">
      <g>
       <use xlink:href="#m7ee37d69b8" x="255.056314" y="347.488" style="fill: #111111; stroke: #111111; stroke-width: 0.8"/>
      </g>
     </g>
     <g id="text_4">
      <!-- 0.3 -->
      <g style="fill: #111111" transform="translate(247.988345 362.48175) scale(0.1 -0.1)">
       <defs>
        <path id="MicrosoftYaHei-33" d="M 447 809 
Q 944 425 1569 425 
Q 2069 425 2361 670 
Q 2653 916 2653 1328 
Q 2653 2247 1338 2247 
L 934 2247 
L 934 2753 
L 1319 2753 
Q 2484 2753 2484 3616 
Q 2484 4413 1594 4413 
Q 1084 4413 634 4069 
L 634 4647 
Q 1109 4922 1744 4922 
Q 2363 4922 2738 4598 
Q 3113 4275 3113 3759 
Q 3113 2809 2144 2538 
L 2144 2525 
Q 2669 2469 2973 2155 
Q 3278 1841 3278 1372 
Q 3278 719 2808 319 
Q 2338 -81 1556 -81 
Q 869 -81 447 175 
L 447 809 
z
" transform="scale(0.015625)"/>
       </defs>
       <use xlink:href="#MicrosoftYaHei-30"/>
       <use xlink:href="#MicrosoftYaHei-2e" transform="translate(58.642578 0)"/>
       <use xlink:href="#MicrosoftYaHei-33" transform="translate(82.714844 0)"/>
      </g>
     </g>
    </g>
    <g id="xtick_5">
     <g id="line2d_5">
      <g>
       <use xlink:href="#m7ee37d69b8" x="298.630918" y="347.488" style="fill: #111111; stroke: #111111; stroke-width: 0.8"/>
      </g>
     </g>
     <g id="text_5">
      <!-- 0.4 -->
      <g style="fill: #111111" transform="translate(291.562949 362.48175) scale(0.1 -0.1)">
       <defs>
        <path id="MicrosoftYaHei-34" d="M 2906 4841 
L 2906 1644 
L 3631 1644 
L 3631 1138 
L 2906 1138 
L 2906 0 
L 2313 0 
L 2313 1138 
L 53 1138 
L 53 1616 
Q 656 2294 1265 3178 
Q 1875 4063 2272 4841 
L 2906 4841 
z
M 741 1644 
L 2313 1644 
L 2313 3950 
Q 1988 3366 1616 2817 
Q 1244 2269 741 1644 
z
" transform="scale(0.015625)"/>
       </defs>
       <use xlink:href="#MicrosoftYaHei-30"/>
       <use xlink:href="#MicrosoftYaHei-2e" transform="translate(58.642578 0)"/>
       <use xlink:href="#MicrosoftYaHei-34" transform="translate(82.714844 0)"/>
      </g>
     </g>
    </g>
    <g id="xtick_6">
     <g id="line2d_6">
      <g>
       <use xlink:href="#m7ee37d69b8" x="342.205523" y="347.488" style="fill: #111111; stroke: #111111; stroke-width: 0.8"/>
      </g>
     </g>
     <g id="text_6">
      <!-- 0.5 -->
      <g style="fill: #111111" transform="translate(335.137554 362.48175) scale(0.1 -0.1)">
       <defs>
        <path id="MicrosoftYaHei-35" d="M 3294 1494 
Q 3294 784 2823 350 
Q 2353 -84 1559 -84 
Q 878 -84 544 119 
L 544 744 
Q 1034 425 1544 425 
Q 2050 425 2361 704 
Q 2672 984 2672 1447 
Q 2672 1909 2348 2167 
Q 2025 2425 1434 2425 
Q 978 2425 613 2384 
L 791 4841 
L 3053 4841 
L 3053 4303 
L 1306 4303 
L 1206 2931 
L 1647 2950 
Q 2416 2950 2855 2567 
Q 3294 2184 3294 1494 
z
" transform="scale(0.015625)"/>
       </defs>
       <use xlink:href="#MicrosoftYaHei-30"/>
       <use xlink:href="#MicrosoftYaHei-2e" transform="translate(58.642578 0)"/>
       <use xlink:href="#MicrosoftYaHei-35" transform="translate(82.714844 0)"/>
      </g>
     </g>
    </g>
    <g id="xtick_7">
     <g id="line2d_7">
      <g>
       <use xlink:href="#m7ee37d69b8" x="385.780127" y="347.488" style="fill: #111111; stroke: #111111; stroke-width: 0.8"/>
      </g>
     </g>
     <g id="text_7">
      <!-- 0.6 -->
      <g style="fill: #111111" transform="translate(378.712158 362.48175) scale(0.1 -0.1)">
       <defs>
        <path id="MicrosoftYaHei-36" d="M 3181 4219 
Q 2803 4413 2391 4413 
Q 1763 4413 1381 3866 
Q 1000 3319 994 2372 
L 1009 2372 
Q 1353 3038 2106 3038 
Q 2734 3038 3109 2628 
Q 3484 2219 3484 1541 
Q 3484 831 3051 375 
Q 2619 -81 1947 -81 
Q 1209 -81 789 495 
Q 369 1072 369 2131 
Q 369 3413 920 4167 
Q 1472 4922 2372 4922 
Q 2888 4922 3181 4781 
L 3181 4219 
z
M 1031 1584 
Q 1031 1106 1286 765 
Q 1541 425 1963 425 
Q 2363 425 2613 719 
Q 2863 1013 2863 1475 
Q 2863 1975 2627 2253 
Q 2391 2531 1956 2531 
Q 1544 2531 1287 2250 
Q 1031 1969 1031 1584 
z
" transform="scale(0.015625)"/>
       </defs>
       <use xlink:href="#MicrosoftYaHei-30"/>
       <use xlink:href="#MicrosoftYaHei-2e" transform="translate(58.642578 0)"/>
       <use xlink:href="#MicrosoftYaHei-36" transform="translate(82.714844 0)"/>
      </g>
     </g>
    </g>
    <g id="text_8">
     <!-- Permutation importance -->
     <g style="fill: #111111" transform="translate(200.839531 376.961437) scale(0.1 -0.1)">
      <defs>
       <path id="MicrosoftYaHei-50" d="M 1250 1809 
L 1250 0 
L 625 0 
L 625 4841 
L 2000 4841 
Q 2784 4841 3217 4462 
Q 3650 4084 3650 3381 
Q 3650 2669 3144 2226 
Q 2638 1784 1878 1809 
L 1250 1809 
z
M 1250 4291 
L 1250 2359 
L 1828 2359 
Q 2400 2359 2697 2617 
Q 2994 2875 2994 3356 
Q 2994 4291 1888 4291 
L 1250 4291 
z
" transform="scale(0.015625)"/>
       <path id="MicrosoftYaHei-65" d="M 3363 1572 
L 944 1572 
Q 959 1019 1246 717 
Q 1534 416 2050 416 
Q 2631 416 3116 788 
L 3116 241 
Q 2659 -81 1906 -81 
Q 1156 -81 736 394 
Q 316 869 316 1713 
Q 316 2506 777 3022 
Q 1238 3538 1922 3538 
Q 2600 3538 2981 3102 
Q 3363 2666 3363 1881 
L 3363 1572 
z
M 2750 2063 
Q 2747 2531 2528 2787 
Q 2309 3044 1913 3044 
Q 1547 3044 1280 2772 
Q 1013 2500 944 2063 
L 2750 2063 
z
" transform="scale(0.015625)"/>
       <path id="MicrosoftYaHei-72" d="M 2400 2850 
Q 2247 2959 1978 2959 
Q 1622 2959 1390 2626 
Q 1159 2294 1159 1750 
L 1159 0 
L 547 0 
L 547 3456 
L 1159 3456 
L 1159 2753 
L 1172 2753 
Q 1434 3516 2078 3516 
Q 2288 3516 2400 3469 
L 2400 2850 
z
" transform="scale(0.015625)"/>
       <path id="MicrosoftYaHei-6d" d="M 5522 0 
L 4909 0 
L 4909 1984 
Q 4909 2547 4734 2789 
Q 4559 3031 4159 3031 
Q 3822 3031 3581 2715 
Q 3341 2400 3341 1969 
L 3341 0 
L 2728 0 
L 2728 2047 
Q 2728 3031 1969 3031 
Q 1619 3031 1389 2731 
Q 1159 2431 1159 1966 
L 1159 0 
L 547 0 
L 547 3456 
L 1159 3456 
L 1159 2909 
L 1172 2909 
Q 1541 3538 2250 3538 
Q 2597 3538 2862 3347 
Q 3128 3156 3231 2831 
Q 3616 3538 4381 3538 
Q 5522 3538 5522 2131 
L 5522 0 
z
" transform="scale(0.015625)"/>
       <path id="MicrosoftYaHei-75" d="M 3400 0 
L 2784 0 
L 2784 544 
L 2772 544 
Q 2425 -81 1706 -81 
Q 478 -81 478 1388 
L 478 3456 
L 1084 3456 
L 1084 1478 
Q 1084 425 1891 425 
Q 2291 425 2537 720 
Q 2784 1016 2784 1466 
L 2784 3456 
L 3400 3456 
L 3400 0 
z
" transform="scale(0.015625)"/>
       <path id="MicrosoftYaHei-74" d="M 2206 34 
Q 2006 -75 1666 -75 
Q 738 -75 738 953 
L 738 2950 
L 144 2950 
L 144 3456 
L 738 3456 
L 738 4288 
L 1347 4481 
L 1347 3456 
L 2206 3456 
L 2206 2950 
L 1347 2950 
L 1347 1063 
Q 1347 722 1462 575 
Q 1578 428 1847 428 
Q 2053 428 2206 544 
L 2206 34 
z
" transform="scale(0.015625)"/>
       <path id="MicrosoftYaHei-61" d="M 628 3216 
Q 1144 3538 1819 3538 
Q 3069 3538 3069 2225 
L 3069 0 
L 2463 0 
L 2463 534 
L 2447 534 
Q 2088 -81 1388 -81 
Q 884 -81 587 191 
Q 291 463 291 925 
Q 291 1894 1438 2053 
L 2463 2197 
Q 2463 3044 1763 3044 
Q 1141 3044 628 2625 
L 628 3216 
z
M 1653 1625 
Q 1228 1569 1067 1412 
Q 906 1256 906 975 
Q 906 728 1081 572 
Q 1256 416 1544 416 
Q 1944 416 2203 697 
Q 2463 978 2463 1403 
L 2463 1734 
L 1653 1625 
z
" transform="scale(0.015625)"/>
       <path id="MicrosoftYaHei-69" d="M 472 4675 
Q 472 4838 583 4948 
Q 694 5059 856 5059 
Q 1022 5059 1136 4950 
Q 1250 4841 1250 4675 
Q 1250 4513 1136 4405 
Q 1022 4297 856 4297 
Q 691 4297 581 4405 
Q 472 4513 472 4675 
z
M 544 0 
L 544 3456 
L 1156 3456 
L 1156 0 
L 544 0 
z
" transform="scale(0.015625)"/>
       <path id="MicrosoftYaHei-6f" d="M 316 1691 
Q 316 2547 794 3042 
Q 1272 3538 2091 3538 
Q 2869 3538 3311 3061 
Q 3753 2584 3753 1744 
Q 3753 925 3281 422 
Q 2809 -81 2016 -81 
Q 1241 -81 778 406 
Q 316 894 316 1691 
z
M 941 1709 
Q 941 1113 1242 769 
Q 1544 425 2053 425 
Q 2578 425 2853 761 
Q 3128 1097 3128 1725 
Q 3128 2356 2853 2693 
Q 2578 3031 2053 3031 
Q 1538 3031 1239 2678 
Q 941 2325 941 1709 
z
" transform="scale(0.015625)"/>
       <path id="MicrosoftYaHei-6e" d="M 3469 0 
L 2859 0 
L 2859 1966 
Q 2859 3031 2081 3031 
Q 1678 3031 1418 2731 
Q 1159 2431 1159 1972 
L 1159 0 
L 547 0 
L 547 3456 
L 1159 3456 
L 1159 2884 
L 1172 2884 
Q 1563 3538 2306 3538 
Q 2875 3538 3172 3173 
Q 3469 2809 3469 2113 
L 3469 0 
z
" transform="scale(0.015625)"/>
       <path id="MicrosoftYaHei-20" transform="scale(0.015625)"/>
       <path id="MicrosoftYaHei-70" d="M 1159 488 
L 1159 -1591 
L 547 -1591 
L 547 3456 
L 1159 3456 
L 1159 2859 
L 1172 2859 
Q 1578 3538 2359 3538 
Q 3022 3538 3398 3073 
Q 3775 2609 3775 1828 
Q 3775 966 3348 442 
Q 2922 -81 2200 -81 
Q 1534 -81 1172 488 
L 1159 488 
z
M 1156 1425 
Q 1156 1003 1428 714 
Q 1700 425 2109 425 
Q 2597 425 2872 800 
Q 3147 1175 3147 1838 
Q 3147 2397 2890 2714 
Q 2634 3031 2191 3031 
Q 1738 3031 1447 2709 
Q 1156 2388 1156 1884 
L 1156 1425 
z
" transform="scale(0.015625)"/>
       <path id="MicrosoftYaHei-63" d="M 2934 156 
Q 2538 -81 1978 -81 
Q 1228 -81 772 400 
Q 316 881 316 1647 
Q 316 2497 808 3017 
Q 1300 3538 2125 3538 
Q 2600 3538 2938 3369 
L 2938 2763 
Q 2572 3031 2125 3031 
Q 1600 3031 1270 2667 
Q 941 2303 941 1697 
Q 941 1100 1252 762 
Q 1563 425 2091 425 
Q 2538 425 2934 719 
L 2934 156 
z
" transform="scale(0.015625)"/>
      </defs>
      <use xlink:href="#MicrosoftYaHei-50"/>
      <use xlink:href="#MicrosoftYaHei-65" transform="translate(57.181641 0)"/>
      <use xlink:href="#MicrosoftYaHei-72" transform="translate(113.919922 0)"/>
      <use xlink:href="#MicrosoftYaHei-6d" transform="translate(151.853516 0)"/>
      <use xlink:href="#MicrosoftYaHei-75" transform="translate(245.554688 0)"/>
      <use xlink:href="#MicrosoftYaHei-74" transform="translate(307.175781 0)"/>
      <use xlink:href="#MicrosoftYaHei-61" transform="translate(344.431641 0)"/>
      <use xlink:href="#MicrosoftYaHei-74" transform="translate(399.705078 0)"/>
      <use xlink:href="#MicrosoftYaHei-69" transform="translate(436.960938 0)"/>
      <use xlink:href="#MicrosoftYaHei-6f" transform="translate(463.572266 0)"/>
      <use xlink:href="#MicrosoftYaHei-6e" transform="translate(527.146484 0)"/>
      <use xlink:href="#MicrosoftYaHei-20" transform="translate(588.767578 0)"/>
      <use xlink:href="#MicrosoftYaHei-69" transform="translate(618.357422 0)"/>
      <use xlink:href="#MicrosoftYaHei-6d" transform="translate(644.96875 0)"/>
      <use xlink:href="#MicrosoftYaHei-70" transform="translate(738.669922 0)"/>
      <use xlink:href="#MicrosoftYaHei-6f" transform="translate(802.537109 0)"/>
      <use xlink:href="#MicrosoftYaHei-72" transform="translate(866.111328 0)"/>
      <use xlink:href="#MicrosoftYaHei-74" transform="translate(907.419922 0)"/>
      <use xlink:href="#MicrosoftYaHei-61" transform="translate(944.675781 0)"/>
      <use xlink:href="#MicrosoftYaHei-6e" transform="translate(999.949219 0)"/>
      <use xlink:href="#MicrosoftYaHei-63" transform="translate(1061.570312 0)"/>
      <use xlink:href="#MicrosoftYaHei-65" transform="translate(1111.716797 0)"/>
     </g>
    </g>
   </g>
   <g id="matplotlib.axis_2">
    <g id="ytick_1">
     <g id="line2d_8">
      <defs>
       <path id="m56f6dd6c04" d="M 0 0 
L -3.5 0 
" style="stroke: #111111; stroke-width: 0.8"/>
      </defs>
      <g>
       <use xlink:href="#m56f6dd6c04" x="124.3325" y="321.595114" style="fill: #111111; stroke: #111111; stroke-width: 0.8"/>
      </g>
     </g>
     <g id="text_9">
      <!-- E_AI_BLEG -->
      <g style="fill: #111111" transform="translate(78.30875 324.765739) scale(0.08 -0.08)">
       <defs>
        <path id="MicrosoftYaHei-45" d="M 3228 0 
L 625 0 
L 625 4841 
L 3119 4841 
L 3119 4284 
L 1250 4284 
L 1250 2734 
L 2981 2734 
L 2981 2181 
L 1250 2181 
L 1250 553 
L 3228 553 
L 3228 0 
z
" transform="scale(0.015625)"/>
        <path id="MicrosoftYaHei-5f" d="M 2869 -1634 
L 0 -1634 
L 0 -1231 
L 2869 -1231 
L 2869 -1634 
z
" transform="scale(0.015625)"/>
        <path id="MicrosoftYaHei-41" d="M 4428 0 
L 3738 0 
L 3244 1325 
L 1228 1325 
L 763 0 
L 72 0 
L 1916 4841 
L 2584 4841 
L 4428 0 
z
M 3050 1872 
L 2319 3884 
Q 2284 3981 2244 4222 
L 2228 4222 
Q 2194 4003 2150 3884 
L 1425 1872 
L 3050 1872 
z
" transform="scale(0.015625)"/>
        <path id="MicrosoftYaHei-49" d="M 1250 4841 
L 1250 0 
L 625 0 
L 625 4841 
L 1250 4841 
z
" transform="scale(0.015625)"/>
        <path id="MicrosoftYaHei-42" d="M 625 0 
L 625 4841 
L 2047 4841 
Q 2684 4841 3065 4536 
Q 3447 4231 3447 3728 
Q 3447 3328 3220 3022 
Q 2994 2716 2597 2588 
L 2597 2575 
Q 3091 2519 3386 2201 
Q 3681 1884 3681 1397 
Q 3681 772 3232 386 
Q 2784 0 2084 0 
L 625 0 
z
M 1250 4294 
L 1250 2778 
L 1819 2778 
Q 2272 2778 2530 2998 
Q 2788 3219 2788 3609 
Q 2788 4294 1875 4294 
L 1250 4294 
z
M 1250 2234 
L 1250 547 
L 2000 547 
Q 2491 547 2758 773 
Q 3025 1000 3025 1403 
Q 3025 2234 1897 2234 
L 1250 2234 
z
" transform="scale(0.015625)"/>
        <path id="MicrosoftYaHei-4c" d="M 3178 0 
L 625 0 
L 625 4841 
L 1250 4841 
L 1250 553 
L 3178 553 
L 3178 0 
z
" transform="scale(0.015625)"/>
        <path id="MicrosoftYaHei-47" d="M 4284 331 
Q 3559 -81 2647 -81 
Q 1597 -81 955 583 
Q 313 1247 313 2356 
Q 313 3478 1022 4200 
Q 1731 4922 2841 4922 
Q 3625 4922 4169 4672 
L 4169 3997 
Q 3588 4363 2784 4363 
Q 1994 4363 1481 3822 
Q 969 3281 969 2397 
Q 969 1488 1441 981 
Q 1913 475 2716 475 
Q 3269 475 3656 688 
L 3656 1997 
L 2606 1997 
L 2606 2550 
L 4284 2550 
L 4284 331 
z
" transform="scale(0.015625)"/>
       </defs>
       <use xlink:href="#MicrosoftYaHei-45"/>
       <use xlink:href="#MicrosoftYaHei-5f" transform="translate(54.980469 0)"/>
       <use xlink:href="#MicrosoftYaHei-41" transform="translate(99.804688 0)"/>
       <use xlink:href="#MicrosoftYaHei-49" transform="translate(170.166016 0)"/>
       <use xlink:href="#MicrosoftYaHei-5f" transform="translate(199.560547 0)"/>
       <use xlink:href="#MicrosoftYaHei-42" transform="translate(244.384766 0)"/>
       <use xlink:href="#MicrosoftYaHei-4c" transform="translate(307.128906 0)"/>
       <use xlink:href="#MicrosoftYaHei-45" transform="translate(358.447266 0)"/>
       <use xlink:href="#MicrosoftYaHei-47" transform="translate(413.427734 0)"/>
      </g>
     </g>
    </g>
    <g id="ytick_2">
     <g id="line2d_9">
      <g>
       <use xlink:href="#m56f6dd6c04" x="124.3325" y="288.819309" style="fill: #111111; stroke: #111111; stroke-width: 0.8"/>
      </g>
     </g>
     <g id="text_10">
      <!-- E_AI_TNLG -->
      <g style="fill: #111111" transform="translate(76.9175 291.989934) scale(0.08 -0.08)">
       <defs>
        <path id="MicrosoftYaHei-54" d="M 3550 4284 
L 2153 4284 
L 2153 0 
L 1525 0 
L 1525 4284 
L 134 4284 
L 134 4841 
L 3550 4841 
L 3550 4284 
z
" transform="scale(0.015625)"/>
        <path id="MicrosoftYaHei-4e" d="M 4578 0 
L 3838 0 
L 1403 3766 
Q 1300 3925 1238 4081 
L 1219 4081 
Q 1244 3919 1244 3403 
L 1244 0 
L 625 0 
L 625 4841 
L 1409 4841 
L 3778 1141 
Q 3947 878 3978 806 
L 3991 806 
Q 3959 1013 3959 1513 
L 3959 4841 
L 4578 4841 
L 4578 0 
z
" transform="scale(0.015625)"/>
       </defs>
       <use xlink:href="#MicrosoftYaHei-45"/>
       <use xlink:href="#MicrosoftYaHei-5f" transform="translate(54.980469 0)"/>
       <use xlink:href="#MicrosoftYaHei-41" transform="translate(99.804688 0)"/>
       <use xlink:href="#MicrosoftYaHei-49" transform="translate(170.166016 0)"/>
       <use xlink:href="#MicrosoftYaHei-5f" transform="translate(199.560547 0)"/>
       <use xlink:href="#MicrosoftYaHei-54" transform="translate(244.384766 0)"/>
       <use xlink:href="#MicrosoftYaHei-4e" transform="translate(301.708984 0)"/>
       <use xlink:href="#MicrosoftYaHei-4c" transform="translate(383.007812 0)"/>
       <use xlink:href="#MicrosoftYaHei-47" transform="translate(430.826172 0)"/>
      </g>
     </g>
    </g>
    <g id="ytick_3">
     <g id="line2d_10">
      <g>
       <use xlink:href="#m56f6dd6c04" x="124.3325" y="256.043504" style="fill: #111111; stroke: #111111; stroke-width: 0.8"/>
      </g>
     </g>
     <g id="text_11">
      <!-- deployment_readiness_index -->
      <g style="fill: #111111" transform="translate(7.2 259.241004) scale(0.08 -0.08)">
       <defs>
        <path id="MicrosoftYaHei-64" d="M 3547 0 
L 2934 0 
L 2934 575 
L 2922 575 
Q 2544 -81 1747 -81 
Q 1091 -81 703 386 
Q 316 853 316 1647 
Q 316 2503 753 3020 
Q 1191 3538 1897 3538 
Q 2603 3538 2922 2988 
L 2934 2988 
L 2934 5116 
L 3547 5116 
L 3547 0 
z
M 2938 2056 
Q 2938 2472 2664 2751 
Q 2391 3031 1991 3031 
Q 1503 3031 1222 2667 
Q 941 2303 941 1675 
Q 941 1097 1211 761 
Q 1481 425 1931 425 
Q 2375 425 2656 754 
Q 2938 1084 2938 1575 
L 2938 2056 
z
" transform="scale(0.015625)"/>
        <path id="MicrosoftYaHei-6c" d="M 544 0 
L 544 5116 
L 1156 5116 
L 1156 0 
L 544 0 
z
" transform="scale(0.015625)"/>
        <path id="MicrosoftYaHei-79" d="M 3359 3456 
L 1791 -522 
Q 1353 -1628 556 -1628 
Q 328 -1628 166 -1578 
L 166 -1041 
Q 344 -1109 509 -1109 
Q 925 -1109 1131 -622 
L 1397 6 
L 41 3456 
L 719 3456 
L 1622 859 
L 1697 575 
L 1713 575 
Q 1731 672 1788 853 
L 2731 3456 
L 3359 3456 
z
" transform="scale(0.015625)"/>
        <path id="MicrosoftYaHei-73" d="M 353 747 
Q 816 413 1350 413 
Q 2066 413 2066 881 
Q 2066 1081 1909 1211 
Q 1753 1341 1275 1519 
Q 700 1750 528 1976 
Q 356 2203 356 2525 
Q 356 2984 745 3261 
Q 1134 3538 1703 3538 
Q 2144 3538 2522 3384 
L 2522 2794 
Q 2134 3044 1644 3044 
Q 1350 3044 1165 2916 
Q 981 2788 981 2578 
Q 981 2372 1114 2256 
Q 1247 2141 1703 1959 
Q 2281 1744 2484 1512 
Q 2688 1281 2688 941 
Q 2688 466 2298 192 
Q 1909 -81 1291 -81 
Q 753 -81 353 122 
L 353 747 
z
" transform="scale(0.015625)"/>
        <path id="MicrosoftYaHei-78" d="M 3163 3456 
L 2006 1716 
L 3147 0 
L 2434 0 
L 1775 1100 
Q 1722 1188 1625 1369 
L 1613 1369 
Q 1609 1350 1456 1100 
L 784 0 
L 81 0 
L 1256 1697 
L 134 3456 
L 847 3456 
L 1494 2300 
Q 1553 2194 1638 2025 
L 1650 2025 
L 2491 3456 
L 3163 3456 
z
" transform="scale(0.015625)"/>
       </defs>
       <use xlink:href="#MicrosoftYaHei-64"/>
       <use xlink:href="#MicrosoftYaHei-65" transform="translate(63.964844 0)"/>
       <use xlink:href="#MicrosoftYaHei-70" transform="translate(120.703125 0)"/>
       <use xlink:href="#MicrosoftYaHei-6c" transform="translate(184.570312 0)"/>
       <use xlink:href="#MicrosoftYaHei-6f" transform="translate(211.181641 0)"/>
       <use xlink:href="#MicrosoftYaHei-79" transform="translate(274.755859 0)"/>
       <use xlink:href="#MicrosoftYaHei-6d" transform="translate(327.685547 0)"/>
       <use xlink:href="#MicrosoftYaHei-65" transform="translate(421.386719 0)"/>
       <use xlink:href="#MicrosoftYaHei-6e" transform="translate(478.125 0)"/>
       <use xlink:href="#MicrosoftYaHei-74" transform="translate(539.746094 0)"/>
       <use xlink:href="#MicrosoftYaHei-5f" transform="translate(577.001953 0)"/>
       <use xlink:href="#MicrosoftYaHei-72" transform="translate(621.826172 0)"/>
       <use xlink:href="#MicrosoftYaHei-65" transform="translate(658.634766 0)"/>
       <use xlink:href="#MicrosoftYaHei-61" transform="translate(715.373047 0)"/>
       <use xlink:href="#MicrosoftYaHei-64" transform="translate(770.646484 0)"/>
       <use xlink:href="#MicrosoftYaHei-69" transform="translate(834.611328 0)"/>
       <use xlink:href="#MicrosoftYaHei-6e" transform="translate(861.222656 0)"/>
       <use xlink:href="#MicrosoftYaHei-65" transform="translate(922.84375 0)"/>
       <use xlink:href="#MicrosoftYaHei-73" transform="translate(979.582031 0)"/>
       <use xlink:href="#MicrosoftYaHei-73" transform="translate(1025.871094 0)"/>
       <use xlink:href="#MicrosoftYaHei-5f" transform="translate(1072.160156 0)"/>
       <use xlink:href="#MicrosoftYaHei-69" transform="translate(1116.984375 0)"/>
       <use xlink:href="#MicrosoftYaHei-6e" transform="translate(1143.595703 0)"/>
       <use xlink:href="#MicrosoftYaHei-64" transform="translate(1205.216797 0)"/>
       <use xlink:href="#MicrosoftYaHei-65" transform="translate(1269.181641 0)"/>
       <use xlink:href="#MicrosoftYaHei-78" transform="translate(1325.919922 0)"/>
      </g>
     </g>
    </g>
    <g id="ytick_4">
     <g id="line2d_11">
      <g>
       <use xlink:href="#m56f6dd6c04" x="124.3325" y="223.267699" style="fill: #111111; stroke: #111111; stroke-width: 0.8"/>
      </g>
     </g>
     <g id="text_12">
      <!-- E_AI_CC -->
      <g style="fill: #111111" transform="translate(87.30875 226.438324) scale(0.08 -0.08)">
       <defs>
        <path id="MicrosoftYaHei-43" d="M 3938 200 
Q 3403 -81 2597 -81 
Q 1556 -81 934 580 
Q 313 1241 313 2328 
Q 313 3497 1013 4209 
Q 1713 4922 2791 4922 
Q 3484 4922 3938 4725 
L 3938 4072 
Q 3419 4359 2797 4359 
Q 1988 4359 1478 3820 
Q 969 3281 969 2366 
Q 969 1497 1444 986 
Q 1919 475 2688 475 
Q 3406 475 3938 800 
L 3938 200 
z
" transform="scale(0.015625)"/>
       </defs>
       <use xlink:href="#MicrosoftYaHei-45"/>
       <use xlink:href="#MicrosoftYaHei-5f" transform="translate(54.980469 0)"/>
       <use xlink:href="#MicrosoftYaHei-41" transform="translate(99.804688 0)"/>
       <use xlink:href="#MicrosoftYaHei-49" transform="translate(170.166016 0)"/>
       <use xlink:href="#MicrosoftYaHei-5f" transform="translate(199.560547 0)"/>
       <use xlink:href="#MicrosoftYaHei-43" transform="translate(244.384766 0)"/>
       <use xlink:href="#MicrosoftYaHei-43" transform="translate(308.404297 0)"/>
      </g>
     </g>
    </g>
    <g id="ytick_5">
     <g id="line2d_12">
      <g>
       <use xlink:href="#m56f6dd6c04" x="124.3325" y="190.491894" style="fill: #111111; stroke: #111111; stroke-width: 0.8"/>
      </g>
     </g>
     <g id="text_13">
      <!-- E_AI_CC1SI_DA -->
      <g style="fill: #111111" transform="translate(60.48 193.662519) scale(0.08 -0.08)">
       <defs>
        <path id="MicrosoftYaHei-53" d="M 400 909 
Q 622 716 994 591 
Q 1366 466 1700 466 
Q 2719 466 2719 1191 
Q 2719 1394 2609 1556 
Q 2500 1719 2309 1844 
Q 2119 1969 1594 2228 
Q 866 2591 634 2902 
Q 403 3213 403 3613 
Q 403 4216 887 4569 
Q 1372 4922 2109 4922 
Q 2831 4922 3169 4747 
L 3169 4066 
Q 2731 4369 2063 4369 
Q 1619 4369 1339 4183 
Q 1059 3997 1059 3666 
Q 1059 3372 1253 3187 
Q 1447 3003 2094 2684 
Q 2806 2344 3090 2003 
Q 3375 1663 3375 1238 
Q 3375 600 2912 259 
Q 2450 -81 1628 -81 
Q 1341 -81 958 -1 
Q 575 78 400 197 
L 400 909 
z
" transform="scale(0.015625)"/>
        <path id="MicrosoftYaHei-44" d="M 625 0 
L 625 4841 
L 2006 4841 
Q 3106 4841 3836 4200 
Q 4566 3559 4566 2481 
Q 4566 1356 3836 678 
Q 3106 0 1956 0 
L 625 0 
z
M 1250 4284 
L 1250 553 
L 1953 553 
Q 2875 553 3392 1056 
Q 3909 1559 3909 2466 
Q 3909 3372 3378 3828 
Q 2847 4284 1981 4284 
L 1250 4284 
z
" transform="scale(0.015625)"/>
       </defs>
       <use xlink:href="#MicrosoftYaHei-45"/>
       <use xlink:href="#MicrosoftYaHei-5f" transform="translate(54.980469 0)"/>
       <use xlink:href="#MicrosoftYaHei-41" transform="translate(99.804688 0)"/>
       <use xlink:href="#MicrosoftYaHei-49" transform="translate(170.166016 0)"/>
       <use xlink:href="#MicrosoftYaHei-5f" transform="translate(199.560547 0)"/>
       <use xlink:href="#MicrosoftYaHei-43" transform="translate(244.384766 0)"/>
       <use xlink:href="#MicrosoftYaHei-43" transform="translate(308.404297 0)"/>
       <use xlink:href="#MicrosoftYaHei-31" transform="translate(375.298828 0)"/>
       <use xlink:href="#MicrosoftYaHei-53" transform="translate(433.941406 0)"/>
       <use xlink:href="#MicrosoftYaHei-49" transform="translate(491.65625 0)"/>
       <use xlink:href="#MicrosoftYaHei-5f" transform="translate(521.050781 0)"/>
       <use xlink:href="#MicrosoftYaHei-44" transform="translate(565.875 0)"/>
       <use xlink:href="#MicrosoftYaHei-41" transform="translate(640.296875 0)"/>
      </g>
     </g>
    </g>
    <g id="ytick_6">
     <g id="line2d_13">
      <g>
       <use xlink:href="#m56f6dd6c04" x="124.3325" y="157.716089" style="fill: #111111; stroke: #111111; stroke-width: 0.8"/>
      </g>
     </g>
     <g id="text_14">
      <!-- E_AI_DA -->
      <g style="fill: #111111" transform="translate(86.19875 160.886714) scale(0.08 -0.08)">
       <use xlink:href="#MicrosoftYaHei-45"/>
       <use xlink:href="#MicrosoftYaHei-5f" transform="translate(54.980469 0)"/>
       <use xlink:href="#MicrosoftYaHei-41" transform="translate(99.804688 0)"/>
       <use xlink:href="#MicrosoftYaHei-49" transform="translate(170.166016 0)"/>
       <use xlink:href="#MicrosoftYaHei-5f" transform="translate(199.560547 0)"/>
       <use xlink:href="#MicrosoftYaHei-44" transform="translate(244.384766 0)"/>
       <use xlink:href="#MicrosoftYaHei-41" transform="translate(318.806641 0)"/>
      </g>
     </g>
    </g>
    <g id="ytick_7">
     <g id="line2d_14">
      <g>
       <use xlink:href="#m56f6dd6c04" x="124.3325" y="124.940285" style="fill: #111111; stroke: #111111; stroke-width: 0.8"/>
      </g>
     </g>
     <g id="text_15">
      <!-- E_AI_TML -->
      <g style="fill: #111111" transform="translate(81.27375 128.11091) scale(0.08 -0.08)">
       <defs>
        <path id="MicrosoftYaHei-4d" d="M 5003 0 
L 5003 3206 
Q 5003 3603 5050 4159 
L 5034 4159 
Q 4953 3809 4891 3672 
L 3294 0 
L 2947 0 
L 1353 3644 
Q 1297 3769 1209 4159 
L 1191 4159 
Q 1222 3822 1222 3178 
L 1222 0 
L 625 0 
L 625 4841 
L 1472 4841 
L 2900 1522 
Q 3063 1141 3116 928 
L 3138 928 
Q 3300 1375 3366 1534 
L 4819 4841 
L 5625 4841 
L 5625 0 
L 5003 0 
z
" transform="scale(0.015625)"/>
       </defs>
       <use xlink:href="#MicrosoftYaHei-45"/>
       <use xlink:href="#MicrosoftYaHei-5f" transform="translate(54.980469 0)"/>
       <use xlink:href="#MicrosoftYaHei-41" transform="translate(99.804688 0)"/>
       <use xlink:href="#MicrosoftYaHei-49" transform="translate(170.166016 0)"/>
       <use xlink:href="#MicrosoftYaHei-5f" transform="translate(199.560547 0)"/>
       <use xlink:href="#MicrosoftYaHei-54" transform="translate(244.384766 0)"/>
       <use xlink:href="#MicrosoftYaHei-4d" transform="translate(301.708984 0)"/>
       <use xlink:href="#MicrosoftYaHei-4c" transform="translate(399.414062 0)"/>
      </g>
     </g>
    </g>
    <g id="ytick_8">
     <g id="line2d_15">
      <g>
       <use xlink:href="#m56f6dd6c04" x="124.3325" y="92.16448" style="fill: #111111; stroke: #111111; stroke-width: 0.8"/>
      </g>
     </g>
     <g id="text_16">
      <!-- E_AI_TANY -->
      <g style="fill: #111111" transform="translate(76.88375 95.335105) scale(0.08 -0.08)">
       <defs>
        <path id="MicrosoftYaHei-59" d="M 3828 4841 
L 2234 1781 
L 2234 0 
L 1606 0 
L 1606 1766 
L 53 4841 
L 769 4841 
L 1816 2697 
Q 1819 2694 1931 2388 
L 1941 2388 
Q 1978 2519 2069 2694 
L 3163 4841 
L 3828 4841 
z
" transform="scale(0.015625)"/>
       </defs>
       <use xlink:href="#MicrosoftYaHei-45"/>
       <use xlink:href="#MicrosoftYaHei-5f" transform="translate(54.980469 0)"/>
       <use xlink:href="#MicrosoftYaHei-41" transform="translate(99.804688 0)"/>
       <use xlink:href="#MicrosoftYaHei-49" transform="translate(170.166016 0)"/>
       <use xlink:href="#MicrosoftYaHei-5f" transform="translate(199.560547 0)"/>
       <use xlink:href="#MicrosoftYaHei-54" transform="translate(244.384766 0)"/>
       <use xlink:href="#MicrosoftYaHei-41" transform="translate(293.583984 0)"/>
       <use xlink:href="#MicrosoftYaHei-4e" transform="translate(363.945312 0)"/>
       <use xlink:href="#MicrosoftYaHei-59" transform="translate(445.244141 0)"/>
      </g>
     </g>
    </g>
   </g>
   <g id="patch_11">
    <path d="M 124.3325 347.488 
L 124.3325 66.271594 
" style="fill: none; stroke: #111111; stroke-width: 0.8; stroke-linejoin: miter; stroke-linecap: square"/>
   </g>
   <g id="patch_12">
    <path d="M 124.3325 347.488 
L 394.195 347.488 
" style="fill: none; stroke: #111111; stroke-width: 0.8; stroke-linejoin: miter; stroke-linecap: square"/>
   </g>
   <g id="text_17">
    <!-- Stage 1 SME机制层 -->
    <g style="fill: #111111" transform="translate(208.519375 60.271594) scale(0.11 -0.11)">
     <defs>
      <path id="MicrosoftYaHei-Bold-53" d="M 338 1219 
Q 922 734 1666 734 
Q 2088 734 2300 879 
Q 2513 1025 2513 1253 
Q 2513 1450 2344 1625 
Q 2175 1800 1453 2100 
Q 319 2581 319 3500 
Q 319 4175 833 4548 
Q 1347 4922 2194 4922 
Q 2903 4922 3384 4738 
L 3384 3769 
Q 2897 4100 2244 4100 
Q 1863 4100 1634 3961 
Q 1406 3822 1406 3588 
Q 1406 3400 1562 3242 
Q 1719 3084 2334 2816 
Q 3056 2506 3326 2162 
Q 3597 1819 3597 1344 
Q 3597 647 3103 281 
Q 2609 -84 1700 -84 
Q 869 -84 338 184 
L 338 1219 
z
" transform="scale(0.015625)"/>
      <path id="MicrosoftYaHei-Bold-74" d="M 2494 41 
Q 2266 -84 1803 -84 
Q 703 -84 703 1072 
L 703 2703 
L 134 2703 
L 134 3456 
L 703 3456 
L 703 4216 
L 1706 4503 
L 1706 3456 
L 2494 3456 
L 2494 2703 
L 1706 2703 
L 1706 1247 
Q 1706 694 2144 694 
Q 2313 694 2494 794 
L 2494 41 
z
" transform="scale(0.015625)"/>
      <path id="MicrosoftYaHei-Bold-61" d="M 544 3247 
Q 778 3378 1170 3459 
Q 1563 3541 1841 3541 
Q 3291 3541 3291 2088 
L 3291 0 
L 2331 0 
L 2331 503 
L 2319 503 
Q 1966 -84 1284 -84 
Q 794 -84 498 195 
Q 203 475 203 956 
Q 203 1950 1388 2113 
L 2338 2241 
Q 2338 2844 1709 2844 
Q 1091 2844 544 2469 
L 544 3247 
z
M 1684 1566 
Q 1138 1494 1138 1072 
Q 1138 878 1270 759 
Q 1403 641 1628 641 
Q 1938 641 2138 859 
Q 2338 1078 2338 1403 
L 2338 1650 
L 1684 1566 
z
" transform="scale(0.015625)"/>
      <path id="MicrosoftYaHei-Bold-67" d="M 3800 381 
Q 3800 -581 3251 -1101 
Q 2703 -1622 1672 -1622 
Q 972 -1622 559 -1422 
L 559 -559 
Q 1097 -872 1644 -872 
Q 2184 -872 2489 -583 
Q 2794 -294 2794 219 
L 2794 506 
L 2778 506 
Q 2413 -84 1691 -84 
Q 1038 -84 645 381 
Q 253 847 253 1628 
Q 253 2500 686 3020 
Q 1119 3541 1822 3541 
Q 2459 3541 2778 3044 
L 2794 3044 
L 2794 3456 
L 3800 3456 
L 3800 381 
z
M 2803 1950 
Q 2803 2294 2595 2530 
Q 2388 2766 2072 2766 
Q 1703 2766 1489 2477 
Q 1275 2188 1275 1666 
Q 1275 1213 1481 952 
Q 1688 691 2028 691 
Q 2372 691 2587 956 
Q 2803 1222 2803 1647 
L 2803 1950 
z
" transform="scale(0.015625)"/>
      <path id="MicrosoftYaHei-Bold-65" d="M 3528 1444 
L 1253 1444 
Q 1306 641 2222 641 
Q 2794 641 3231 922 
L 3231 181 
Q 2759 -84 1994 -84 
Q 1169 -84 711 381 
Q 253 847 253 1678 
Q 253 2506 740 3023 
Q 1228 3541 1966 3541 
Q 2700 3541 3114 3095 
Q 3528 2650 3528 1872 
L 3528 1444 
z
M 2588 2075 
Q 2588 2850 1959 2850 
Q 1700 2850 1500 2637 
Q 1300 2425 1250 2075 
L 2588 2075 
z
" transform="scale(0.015625)"/>
      <path id="MicrosoftYaHei-Bold-20" transform="scale(0.015625)"/>
      <path id="MicrosoftYaHei-Bold-31" d="M 2716 4947 
L 2716 0 
L 1700 0 
L 1700 3809 
Q 1513 3647 1188 3517 
Q 863 3388 591 3356 
L 591 4222 
Q 1447 4472 2072 4947 
L 2716 4947 
z
" transform="scale(0.015625)"/>
      <path id="MicrosoftYaHei-Bold-4d" d="M 4991 0 
L 4991 2938 
Q 4991 3344 5031 3959 
L 5006 3959 
Q 4913 3494 4856 3338 
L 3663 0 
L 2841 0 
L 1631 3306 
Q 1588 3425 1478 3959 
L 1450 3959 
Q 1491 3350 1491 2738 
L 1491 0 
L 559 0 
L 559 4841 
L 2059 4841 
L 3103 1916 
Q 3234 1553 3281 1234 
L 3303 1234 
Q 3400 1631 3503 1922 
L 4550 4841 
L 6009 4841 
L 6009 0 
L 4991 0 
z
" transform="scale(0.015625)"/>
      <path id="MicrosoftYaHei-Bold-45" d="M 3425 0 
L 559 0 
L 559 4841 
L 3313 4841 
L 3313 3997 
L 1591 3997 
L 1591 2856 
L 3191 2856 
L 3191 2016 
L 1591 2016 
L 1591 844 
L 3425 844 
L 3425 0 
z
" transform="scale(0.015625)"/>
      <path id="MicrosoftYaHei-Bold-673a" d="M 81 1597 
Q 594 2397 841 3372 
L 138 3372 
L 138 4203 
L 856 4203 
L 856 5322 
L 1675 5322 
L 1675 4203 
L 2400 4203 
L 2400 3372 
L 1675 3372 
L 1675 2788 
Q 2072 2559 2538 2272 
L 2131 1566 
L 1675 1888 
L 1675 -809 
L 856 -809 
L 856 1388 
Q 647 919 369 491 
Q 269 903 81 1597 
z
M 5694 1634 
Q 5988 1503 6306 1391 
Q 6241 91 6181 -189 
Q 6122 -469 5961 -580 
Q 5800 -691 5525 -691 
L 5038 -691 
Q 4438 -691 4438 59 
L 4438 4159 
L 3550 4159 
L 3550 2409 
Q 3550 1031 3328 412 
Q 3106 -206 2531 -828 
Q 2238 -478 1875 -84 
Q 2391 466 2548 1023 
Q 2706 1581 2706 2941 
L 2706 5041 
L 5331 5041 
L 5331 316 
Q 5331 103 5469 103 
Q 5544 103 5580 151 
Q 5616 200 5648 562 
Q 5681 925 5694 1634 
z
" transform="scale(0.015625)"/>
      <path id="MicrosoftYaHei-Bold-5236" d="M 1113 -447 
L 363 -447 
L 363 1997 
L 1650 1997 
L 1650 2478 
L 119 2478 
L 119 3191 
L 1650 3191 
L 1650 3747 
L 978 3747 
Q 900 3472 813 3234 
Q 544 3353 163 3491 
Q 419 4241 588 5103 
L 1269 4966 
L 1163 4459 
L 1650 4459 
L 1650 5328 
L 2475 5328 
L 2475 4459 
L 3725 4459 
L 3725 3747 
L 2475 3747 
L 2475 3191 
L 3906 3191 
L 3906 2478 
L 2475 2478 
L 2475 1997 
L 3763 1997 
L 3763 303 
Q 3763 -47 3617 -245 
Q 3472 -444 3155 -455 
Q 2838 -466 2694 -466 
Q 2631 -128 2519 316 
Q 2681 297 2825 297 
Q 3013 297 3013 503 
L 3013 1278 
L 2475 1278 
L 2475 -853 
L 1650 -853 
L 1650 1278 
L 1113 1278 
L 1113 -447 
z
M 5213 5322 
L 6013 5322 
L 6013 159 
Q 6013 -309 5797 -546 
Q 5581 -784 5187 -796 
Q 4794 -809 4281 -809 
Q 4231 -441 4119 72 
Q 4613 41 4888 41 
Q 5213 41 5213 428 
L 5213 5322 
z
M 4094 4834 
L 4856 4834 
L 4856 653 
L 4094 653 
L 4094 4834 
z
" transform="scale(0.015625)"/>
      <path id="MicrosoftYaHei-Bold-5c42" d="M 650 5072 
L 5975 5072 
L 5975 3166 
L 1525 3166 
Q 1519 2228 1475 1591 
L 6288 1591 
L 6288 878 
L 4806 878 
Q 5672 122 6194 -391 
L 5575 -903 
L 5244 -559 
Q 2244 -694 1838 -803 
L 1488 -128 
Q 1988 175 2528 878 
L 1400 878 
Q 1288 41 763 -778 
Q 388 -328 94 -41 
Q 356 419 500 1014 
Q 644 1609 650 3091 
L 650 5072 
z
M 5100 3878 
L 5100 4359 
L 1525 4359 
L 1525 3878 
L 5100 3878 
z
M 4119 553 
L 4509 878 
L 3528 878 
Q 3144 406 2838 53 
L 4563 119 
L 4119 553 
z
M 1825 2753 
L 5838 2753 
L 5838 2041 
L 1825 2041 
L 1825 2753 
z
" transform="scale(0.015625)"/>
     </defs>
     <use xlink:href="#MicrosoftYaHei-Bold-53"/>
     <use xlink:href="#MicrosoftYaHei-Bold-74" transform="translate(57.40625 0)"/>
     <use xlink:href="#MicrosoftYaHei-Bold-61" transform="translate(98.8125 0)"/>
     <use xlink:href="#MicrosoftYaHei-Bold-67" transform="translate(156.576172 0)"/>
     <use xlink:href="#MicrosoftYaHei-Bold-65" transform="translate(223.03125 0)"/>
     <use xlink:href="#MicrosoftYaHei-Bold-20" transform="translate(281.234375 0)"/>
     <use xlink:href="#MicrosoftYaHei-Bold-31" transform="translate(311.019531 0)"/>
     <use xlink:href="#MicrosoftYaHei-Bold-20" transform="translate(372.689453 0)"/>
     <use xlink:href="#MicrosoftYaHei-Bold-53" transform="translate(402.474609 0)"/>
     <use xlink:href="#MicrosoftYaHei-Bold-4d" transform="translate(462.630859 0)"/>
     <use xlink:href="#MicrosoftYaHei-Bold-45" transform="translate(565.462891 0)"/>
     <use xlink:href="#MicrosoftYaHei-Bold-673a" transform="translate(622.640625 0)"/>
     <use xlink:href="#MicrosoftYaHei-Bold-5236" transform="translate(722.640625 0)"/>
     <use xlink:href="#MicrosoftYaHei-Bold-5c42" transform="translate(822.640625 0)"/>
    </g>
   </g>
  </g>
  <g id="axes_2">
   <g id="patch_13">
    <path d="M 522.1325 347.488 
L 791.995 347.488 
L 791.995 66.271594 
L 522.1325 66.271594 
z
" style="fill: #ffffff"/>
   </g>
   <g id="patch_14">
    <path d="M 522.1325 334.705436 
L 533.658931 334.705436 
L 533.658931 308.484792 
L 522.1325 308.484792 
z
" clip-path="url(#p1d4e4340be)" style="fill: #333333"/>
   </g>
   <g id="patch_15">
    <path d="M 522.1325 301.929631 
L 534.549519 301.929631 
L 534.549519 275.708987 
L 522.1325 275.708987 
z
" clip-path="url(#p1d4e4340be)" style="fill: #333333"/>
   </g>
   <g id="patch_16">
    <path d="M 522.1325 269.153826 
L 534.763398 269.153826 
L 534.763398 242.933182 
L 522.1325 242.933182 
z
" clip-path="url(#p1d4e4340be)" style="fill: #333333"/>
   </g>
   <g id="patch_17">
    <path d="M 522.1325 236.378021 
L 540.231896 236.378021 
L 540.231896 210.157377 
L 522.1325 210.157377 
z
" clip-path="url(#p1d4e4340be)" style="fill: #333333"/>
   </g>
   <g id="patch_18">
    <path d="M 522.1325 203.602216 
L 547.581407 203.602216 
L 547.581407 177.381572 
L 522.1325 177.381572 
z
" clip-path="url(#p1d4e4340be)" style="fill: #333333"/>
   </g>
   <g id="patch_19">
    <path d="M 522.1325 170.826411 
L 550.08856 170.826411 
L 550.08856 144.605768 
L 522.1325 144.605768 
z
" clip-path="url(#p1d4e4340be)" style="fill: #333333"/>
   </g>
   <g id="patch_20">
    <path d="M 522.1325 138.050607 
L 566.615643 138.050607 
L 566.615643 111.829963 
L 522.1325 111.829963 
z
" clip-path="url(#p1d4e4340be)" style="fill: #333333"/>
   </g>
   <g id="patch_21">
    <path d="M 522.1325 105.274802 
L 779.144405 105.274802 
L 779.144405 79.054158 
L 522.1325 79.054158 
z
" clip-path="url(#p1d4e4340be)" style="fill: #333333"/>
   </g>
   <g id="matplotlib.axis_3">
    <g id="xtick_8">
     <g id="line2d_16">
      <g>
       <use xlink:href="#m7ee37d69b8" x="522.1325" y="347.488" style="fill: #111111; stroke: #111111; stroke-width: 0.8"/>
      </g>
     </g>
     <g id="text_18">
      <!-- 0.0 -->
      <g style="fill: #111111" transform="translate(515.064531 362.48175) scale(0.1 -0.1)">
       <use xlink:href="#MicrosoftYaHei-30"/>
       <use xlink:href="#MicrosoftYaHei-2e" transform="translate(58.642578 0)"/>
       <use xlink:href="#MicrosoftYaHei-30" transform="translate(82.714844 0)"/>
      </g>
     </g>
    </g>
    <g id="xtick_9">
     <g id="line2d_17">
      <g>
       <use xlink:href="#m7ee37d69b8" x="576.96607" y="347.488" style="fill: #111111; stroke: #111111; stroke-width: 0.8"/>
      </g>
     </g>
     <g id="text_19">
      <!-- 0.1 -->
      <g style="fill: #111111" transform="translate(569.898101 362.48175) scale(0.1 -0.1)">
       <use xlink:href="#MicrosoftYaHei-30"/>
       <use xlink:href="#MicrosoftYaHei-2e" transform="translate(58.642578 0)"/>
       <use xlink:href="#MicrosoftYaHei-31" transform="translate(82.714844 0)"/>
      </g>
     </g>
    </g>
    <g id="xtick_10">
     <g id="line2d_18">
      <g>
       <use xlink:href="#m7ee37d69b8" x="631.79964" y="347.488" style="fill: #111111; stroke: #111111; stroke-width: 0.8"/>
      </g>
     </g>
     <g id="text_20">
      <!-- 0.2 -->
      <g style="fill: #111111" transform="translate(624.731671 362.48175) scale(0.1 -0.1)">
       <use xlink:href="#MicrosoftYaHei-30"/>
       <use xlink:href="#MicrosoftYaHei-2e" transform="translate(58.642578 0)"/>
       <use xlink:href="#MicrosoftYaHei-32" transform="translate(82.714844 0)"/>
      </g>
     </g>
    </g>
    <g id="xtick_11">
     <g id="line2d_19">
      <g>
       <use xlink:href="#m7ee37d69b8" x="686.63321" y="347.488" style="fill: #111111; stroke: #111111; stroke-width: 0.8"/>
      </g>
     </g>
     <g id="text_21">
      <!-- 0.3 -->
      <g style="fill: #111111" transform="translate(679.565241 362.48175) scale(0.1 -0.1)">
       <use xlink:href="#MicrosoftYaHei-30"/>
       <use xlink:href="#MicrosoftYaHei-2e" transform="translate(58.642578 0)"/>
       <use xlink:href="#MicrosoftYaHei-33" transform="translate(82.714844 0)"/>
      </g>
     </g>
    </g>
    <g id="xtick_12">
     <g id="line2d_20">
      <g>
       <use xlink:href="#m7ee37d69b8" x="741.46678" y="347.488" style="fill: #111111; stroke: #111111; stroke-width: 0.8"/>
      </g>
     </g>
     <g id="text_22">
      <!-- 0.4 -->
      <g style="fill: #111111" transform="translate(734.398811 362.48175) scale(0.1 -0.1)">
       <use xlink:href="#MicrosoftYaHei-30"/>
       <use xlink:href="#MicrosoftYaHei-2e" transform="translate(58.642578 0)"/>
       <use xlink:href="#MicrosoftYaHei-34" transform="translate(82.714844 0)"/>
      </g>
     </g>
    </g>
    <g id="text_23">
     <!-- Permutation importance -->
     <g style="fill: #111111" transform="translate(598.639531 376.961437) scale(0.1 -0.1)">
      <use xlink:href="#MicrosoftYaHei-50"/>
      <use xlink:href="#MicrosoftYaHei-65" transform="translate(57.181641 0)"/>
      <use xlink:href="#MicrosoftYaHei-72" transform="translate(113.919922 0)"/>
      <use xlink:href="#MicrosoftYaHei-6d" transform="translate(151.853516 0)"/>
      <use xlink:href="#MicrosoftYaHei-75" transform="translate(245.554688 0)"/>
      <use xlink:href="#MicrosoftYaHei-74" transform="translate(307.175781 0)"/>
      <use xlink:href="#MicrosoftYaHei-61" transform="translate(344.431641 0)"/>
      <use xlink:href="#MicrosoftYaHei-74" transform="translate(399.705078 0)"/>
      <use xlink:href="#MicrosoftYaHei-69" transform="translate(436.960938 0)"/>
      <use xlink:href="#MicrosoftYaHei-6f" transform="translate(463.572266 0)"/>
      <use xlink:href="#MicrosoftYaHei-6e" transform="translate(527.146484 0)"/>
      <use xlink:href="#MicrosoftYaHei-20" transform="translate(588.767578 0)"/>
      <use xlink:href="#MicrosoftYaHei-69" transform="translate(618.357422 0)"/>
      <use xlink:href="#MicrosoftYaHei-6d" transform="translate(644.96875 0)"/>
      <use xlink:href="#MicrosoftYaHei-70" transform="translate(738.669922 0)"/>
      <use xlink:href="#MicrosoftYaHei-6f" transform="translate(802.537109 0)"/>
      <use xlink:href="#MicrosoftYaHei-72" transform="translate(866.111328 0)"/>
      <use xlink:href="#MicrosoftYaHei-74" transform="translate(907.419922 0)"/>
      <use xlink:href="#MicrosoftYaHei-61" transform="translate(944.675781 0)"/>
      <use xlink:href="#MicrosoftYaHei-6e" transform="translate(999.949219 0)"/>
      <use xlink:href="#MicrosoftYaHei-63" transform="translate(1061.570312 0)"/>
      <use xlink:href="#MicrosoftYaHei-65" transform="translate(1111.716797 0)"/>
     </g>
    </g>
   </g>
   <g id="matplotlib.axis_4">
    <g id="ytick_9">
     <g id="line2d_21">
      <g>
       <use xlink:href="#m56f6dd6c04" x="522.1325" y="321.595114" style="fill: #111111; stroke: #111111; stroke-width: 0.8"/>
      </g>
     </g>
     <g id="text_24">
      <!-- isoc_cicce_usen2__E_CC1_S -->
      <g style="fill: #111111" transform="translate(413.01 324.765739) scale(0.08 -0.08)">
       <use xlink:href="#MicrosoftYaHei-69"/>
       <use xlink:href="#MicrosoftYaHei-73" transform="translate(26.611328 0)"/>
       <use xlink:href="#MicrosoftYaHei-6f" transform="translate(72.900391 0)"/>
       <use xlink:href="#MicrosoftYaHei-63" transform="translate(136.474609 0)"/>
       <use xlink:href="#MicrosoftYaHei-5f" transform="translate(186.621094 0)"/>
       <use xlink:href="#MicrosoftYaHei-63" transform="translate(231.445312 0)"/>
       <use xlink:href="#MicrosoftYaHei-69" transform="translate(281.591797 0)"/>
       <use xlink:href="#MicrosoftYaHei-63" transform="translate(308.203125 0)"/>
       <use xlink:href="#MicrosoftYaHei-63" transform="translate(358.349609 0)"/>
       <use xlink:href="#MicrosoftYaHei-65" transform="translate(408.496094 0)"/>
       <use xlink:href="#MicrosoftYaHei-5f" transform="translate(465.234375 0)"/>
       <use xlink:href="#MicrosoftYaHei-75" transform="translate(510.058594 0)"/>
       <use xlink:href="#MicrosoftYaHei-73" transform="translate(571.679688 0)"/>
       <use xlink:href="#MicrosoftYaHei-65" transform="translate(617.96875 0)"/>
       <use xlink:href="#MicrosoftYaHei-6e" transform="translate(674.707031 0)"/>
       <use xlink:href="#MicrosoftYaHei-32" transform="translate(736.328125 0)"/>
       <use xlink:href="#MicrosoftYaHei-5f" transform="translate(794.970703 0)"/>
       <use xlink:href="#MicrosoftYaHei-5f" transform="translate(839.794922 0)"/>
       <use xlink:href="#MicrosoftYaHei-45" transform="translate(884.619141 0)"/>
       <use xlink:href="#MicrosoftYaHei-5f" transform="translate(939.599609 0)"/>
       <use xlink:href="#MicrosoftYaHei-43" transform="translate(984.423828 0)"/>
       <use xlink:href="#MicrosoftYaHei-43" transform="translate(1048.443359 0)"/>
       <use xlink:href="#MicrosoftYaHei-31" transform="translate(1115.337891 0)"/>
       <use xlink:href="#MicrosoftYaHei-5f" transform="translate(1173.980469 0)"/>
       <use xlink:href="#MicrosoftYaHei-53" transform="translate(1218.804688 0)"/>
      </g>
     </g>
    </g>
    <g id="ytick_10">
     <g id="line2d_22">
      <g>
       <use xlink:href="#m56f6dd6c04" x="522.1325" y="288.819309" style="fill: #111111; stroke: #111111; stroke-width: 0.8"/>
      </g>
     </g>
     <g id="text_25">
      <!-- governance_maturity_proxy -->
      <g style="fill: #111111" transform="translate(409.6525 291.989934) scale(0.08 -0.08)">
       <defs>
        <path id="MicrosoftYaHei-67" d="M 3547 291 
Q 3547 -1628 1684 -1628 
Q 1041 -1628 566 -1388 
L 566 -797 
Q 1144 -1119 1675 -1119 
Q 2934 -1119 2934 206 
L 2934 572 
L 2922 572 
Q 2528 -81 1747 -81 
Q 1097 -81 706 384 
Q 316 850 316 1619 
Q 316 2503 747 3020 
Q 1178 3538 1897 3538 
Q 2588 3538 2922 2988 
L 2934 2988 
L 2934 3456 
L 3547 3456 
L 3547 291 
z
M 2934 2056 
Q 2938 2456 2666 2743 
Q 2394 3031 1997 3031 
Q 1497 3031 1219 2664 
Q 941 2297 941 1656 
Q 941 1106 1209 765 
Q 1478 425 1922 425 
Q 2369 425 2653 750 
Q 2938 1075 2934 1575 
L 2934 2056 
z
" transform="scale(0.015625)"/>
        <path id="MicrosoftYaHei-76" d="M 3331 3456 
L 1963 0 
L 1344 0 
L 44 3456 
L 713 3456 
L 1556 988 
Q 1659 691 1678 491 
L 1694 491 
Q 1725 753 1803 975 
L 2688 3456 
L 3331 3456 
z
" transform="scale(0.015625)"/>
       </defs>
       <use xlink:href="#MicrosoftYaHei-67"/>
       <use xlink:href="#MicrosoftYaHei-6f" transform="translate(63.964844 0)"/>
       <use xlink:href="#MicrosoftYaHei-76" transform="translate(127.539062 0)"/>
       <use xlink:href="#MicrosoftYaHei-65" transform="translate(179.404297 0)"/>
       <use xlink:href="#MicrosoftYaHei-72" transform="translate(236.142578 0)"/>
       <use xlink:href="#MicrosoftYaHei-6e" transform="translate(274.076172 0)"/>
       <use xlink:href="#MicrosoftYaHei-61" transform="translate(335.697266 0)"/>
       <use xlink:href="#MicrosoftYaHei-6e" transform="translate(390.970703 0)"/>
       <use xlink:href="#MicrosoftYaHei-63" transform="translate(452.591797 0)"/>
       <use xlink:href="#MicrosoftYaHei-65" transform="translate(502.738281 0)"/>
       <use xlink:href="#MicrosoftYaHei-5f" transform="translate(559.476562 0)"/>
       <use xlink:href="#MicrosoftYaHei-6d" transform="translate(604.300781 0)"/>
       <use xlink:href="#MicrosoftYaHei-61" transform="translate(698.001953 0)"/>
       <use xlink:href="#MicrosoftYaHei-74" transform="translate(753.275391 0)"/>
       <use xlink:href="#MicrosoftYaHei-75" transform="translate(790.53125 0)"/>
       <use xlink:href="#MicrosoftYaHei-72" transform="translate(852.152344 0)"/>
       <use xlink:href="#MicrosoftYaHei-69" transform="translate(890.335938 0)"/>
       <use xlink:href="#MicrosoftYaHei-74" transform="translate(916.947266 0)"/>
       <use xlink:href="#MicrosoftYaHei-79" transform="translate(954.203125 0)"/>
       <use xlink:href="#MicrosoftYaHei-5f" transform="translate(1007.132812 0)"/>
       <use xlink:href="#MicrosoftYaHei-70" transform="translate(1051.957031 0)"/>
       <use xlink:href="#MicrosoftYaHei-72" transform="translate(1115.824219 0)"/>
       <use xlink:href="#MicrosoftYaHei-6f" transform="translate(1152.632812 0)"/>
       <use xlink:href="#MicrosoftYaHei-78" transform="translate(1214.832031 0)"/>
       <use xlink:href="#MicrosoftYaHei-79" transform="translate(1265.515625 0)"/>
      </g>
     </g>
    </g>
    <g id="ytick_11">
     <g id="line2d_23">
      <g>
       <use xlink:href="#m56f6dd6c04" x="522.1325" y="256.043504" style="fill: #111111; stroke: #111111; stroke-width: 0.8"/>
      </g>
     </g>
     <g id="text_26">
      <!-- country -->
      <g style="fill: #111111" transform="translate(485.555 259.217879) scale(0.08 -0.08)">
       <use xlink:href="#MicrosoftYaHei-63"/>
       <use xlink:href="#MicrosoftYaHei-6f" transform="translate(50.146484 0)"/>
       <use xlink:href="#MicrosoftYaHei-75" transform="translate(113.720703 0)"/>
       <use xlink:href="#MicrosoftYaHei-6e" transform="translate(175.341797 0)"/>
       <use xlink:href="#MicrosoftYaHei-74" transform="translate(236.962891 0)"/>
       <use xlink:href="#MicrosoftYaHei-72" transform="translate(274.21875 0)"/>
       <use xlink:href="#MicrosoftYaHei-79" transform="translate(316.777344 0)"/>
      </g>
     </g>
    </g>
    <g id="ytick_12">
     <g id="line2d_24">
      <g>
       <use xlink:href="#m56f6dd6c04" x="522.1325" y="223.267699" style="fill: #111111; stroke: #111111; stroke-width: 0.8"/>
      </g>
     </g>
     <g id="text_27">
      <!-- deployment_readiness_index -->
      <g style="fill: #111111" transform="translate(405 226.465199) scale(0.08 -0.08)">
       <use xlink:href="#MicrosoftYaHei-64"/>
       <use xlink:href="#MicrosoftYaHei-65" transform="translate(63.964844 0)"/>
       <use xlink:href="#MicrosoftYaHei-70" transform="translate(120.703125 0)"/>
       <use xlink:href="#MicrosoftYaHei-6c" transform="translate(184.570312 0)"/>
       <use xlink:href="#MicrosoftYaHei-6f" transform="translate(211.181641 0)"/>
       <use xlink:href="#MicrosoftYaHei-79" transform="translate(274.755859 0)"/>
       <use xlink:href="#MicrosoftYaHei-6d" transform="translate(327.685547 0)"/>
       <use xlink:href="#MicrosoftYaHei-65" transform="translate(421.386719 0)"/>
       <use xlink:href="#MicrosoftYaHei-6e" transform="translate(478.125 0)"/>
       <use xlink:href="#MicrosoftYaHei-74" transform="translate(539.746094 0)"/>
       <use xlink:href="#MicrosoftYaHei-5f" transform="translate(577.001953 0)"/>
       <use xlink:href="#MicrosoftYaHei-72" transform="translate(621.826172 0)"/>
       <use xlink:href="#MicrosoftYaHei-65" transform="translate(658.634766 0)"/>
       <use xlink:href="#MicrosoftYaHei-61" transform="translate(715.373047 0)"/>
       <use xlink:href="#MicrosoftYaHei-64" transform="translate(770.646484 0)"/>
       <use xlink:href="#MicrosoftYaHei-69" transform="translate(834.611328 0)"/>
       <use xlink:href="#MicrosoftYaHei-6e" transform="translate(861.222656 0)"/>
       <use xlink:href="#MicrosoftYaHei-65" transform="translate(922.84375 0)"/>
       <use xlink:href="#MicrosoftYaHei-73" transform="translate(979.582031 0)"/>
       <use xlink:href="#MicrosoftYaHei-73" transform="translate(1025.871094 0)"/>
       <use xlink:href="#MicrosoftYaHei-5f" transform="translate(1072.160156 0)"/>
       <use xlink:href="#MicrosoftYaHei-69" transform="translate(1116.984375 0)"/>
       <use xlink:href="#MicrosoftYaHei-6e" transform="translate(1143.595703 0)"/>
       <use xlink:href="#MicrosoftYaHei-64" transform="translate(1205.216797 0)"/>
       <use xlink:href="#MicrosoftYaHei-65" transform="translate(1269.181641 0)"/>
       <use xlink:href="#MicrosoftYaHei-78" transform="translate(1325.919922 0)"/>
      </g>
     </g>
    </g>
    <g id="ytick_13">
     <g id="line2d_25">
      <g>
       <use xlink:href="#m56f6dd6c04" x="522.1325" y="190.491894" style="fill: #111111; stroke: #111111; stroke-width: 0.8"/>
      </g>
     </g>
     <g id="text_28">
      <!-- digital_foundation_index -->
      <g style="fill: #111111" transform="translate(420.78125 193.736269) scale(0.08 -0.08)">
       <defs>
        <path id="MicrosoftYaHei-66" d="M 2319 4594 
Q 2147 4684 1947 4684 
Q 1372 4684 1372 3972 
L 1372 3456 
L 2181 3456 
L 2181 2950 
L 1372 2950 
L 1372 0 
L 766 0 
L 766 2950 
L 175 2950 
L 175 3456 
L 766 3456 
L 766 4000 
Q 766 4556 1086 4873 
Q 1406 5191 1900 5191 
Q 2163 5191 2319 5131 
L 2319 4594 
z
" transform="scale(0.015625)"/>
       </defs>
       <use xlink:href="#MicrosoftYaHei-64"/>
       <use xlink:href="#MicrosoftYaHei-69" transform="translate(63.964844 0)"/>
       <use xlink:href="#MicrosoftYaHei-67" transform="translate(90.576172 0)"/>
       <use xlink:href="#MicrosoftYaHei-69" transform="translate(154.541016 0)"/>
       <use xlink:href="#MicrosoftYaHei-74" transform="translate(181.152344 0)"/>
       <use xlink:href="#MicrosoftYaHei-61" transform="translate(218.408203 0)"/>
       <use xlink:href="#MicrosoftYaHei-6c" transform="translate(273.681641 0)"/>
       <use xlink:href="#MicrosoftYaHei-5f" transform="translate(300.292969 0)"/>
       <use xlink:href="#MicrosoftYaHei-66" transform="translate(345.117188 0)"/>
       <use xlink:href="#MicrosoftYaHei-6f" transform="translate(379.785156 0)"/>
       <use xlink:href="#MicrosoftYaHei-75" transform="translate(443.359375 0)"/>
       <use xlink:href="#MicrosoftYaHei-6e" transform="translate(504.980469 0)"/>
       <use xlink:href="#MicrosoftYaHei-64" transform="translate(566.601562 0)"/>
       <use xlink:href="#MicrosoftYaHei-61" transform="translate(630.566406 0)"/>
       <use xlink:href="#MicrosoftYaHei-74" transform="translate(685.839844 0)"/>
       <use xlink:href="#MicrosoftYaHei-69" transform="translate(723.095703 0)"/>
       <use xlink:href="#MicrosoftYaHei-6f" transform="translate(749.707031 0)"/>
       <use xlink:href="#MicrosoftYaHei-6e" transform="translate(813.28125 0)"/>
       <use xlink:href="#MicrosoftYaHei-5f" transform="translate(874.902344 0)"/>
       <use xlink:href="#MicrosoftYaHei-69" transform="translate(919.726562 0)"/>
       <use xlink:href="#MicrosoftYaHei-6e" transform="translate(946.337891 0)"/>
       <use xlink:href="#MicrosoftYaHei-64" transform="translate(1007.958984 0)"/>
       <use xlink:href="#MicrosoftYaHei-65" transform="translate(1071.923828 0)"/>
       <use xlink:href="#MicrosoftYaHei-78" transform="translate(1128.662109 0)"/>
      </g>
     </g>
    </g>
    <g id="ytick_14">
     <g id="line2d_26">
      <g>
       <use xlink:href="#m56f6dd6c04" x="522.1325" y="157.716089" style="fill: #111111; stroke: #111111; stroke-width: 0.8"/>
      </g>
     </g>
     <g id="text_29">
      <!-- ai_industry__E_AI_CC -->
      <g style="fill: #111111" transform="translate(436.36875 160.913589) scale(0.08 -0.08)">
       <use xlink:href="#MicrosoftYaHei-61"/>
       <use xlink:href="#MicrosoftYaHei-69" transform="translate(55.273438 0)"/>
       <use xlink:href="#MicrosoftYaHei-5f" transform="translate(81.884766 0)"/>
       <use xlink:href="#MicrosoftYaHei-69" transform="translate(126.708984 0)"/>
       <use xlink:href="#MicrosoftYaHei-6e" transform="translate(153.320312 0)"/>
       <use xlink:href="#MicrosoftYaHei-64" transform="translate(214.941406 0)"/>
       <use xlink:href="#MicrosoftYaHei-75" transform="translate(278.90625 0)"/>
       <use xlink:href="#MicrosoftYaHei-73" transform="translate(340.527344 0)"/>
       <use xlink:href="#MicrosoftYaHei-74" transform="translate(386.816406 0)"/>
       <use xlink:href="#MicrosoftYaHei-72" transform="translate(424.072266 0)"/>
       <use xlink:href="#MicrosoftYaHei-79" transform="translate(466.630859 0)"/>
       <use xlink:href="#MicrosoftYaHei-5f" transform="translate(519.560547 0)"/>
       <use xlink:href="#MicrosoftYaHei-5f" transform="translate(564.384766 0)"/>
       <use xlink:href="#MicrosoftYaHei-45" transform="translate(609.208984 0)"/>
       <use xlink:href="#MicrosoftYaHei-5f" transform="translate(664.189453 0)"/>
       <use xlink:href="#MicrosoftYaHei-41" transform="translate(709.013672 0)"/>
       <use xlink:href="#MicrosoftYaHei-49" transform="translate(779.375 0)"/>
       <use xlink:href="#MicrosoftYaHei-5f" transform="translate(808.769531 0)"/>
       <use xlink:href="#MicrosoftYaHei-43" transform="translate(853.59375 0)"/>
       <use xlink:href="#MicrosoftYaHei-43" transform="translate(917.613281 0)"/>
      </g>
     </g>
    </g>
    <g id="ytick_15">
     <g id="line2d_27">
      <g>
       <use xlink:href="#m56f6dd6c04" x="522.1325" y="124.940285" style="fill: #111111; stroke: #111111; stroke-width: 0.8"/>
      </g>
     </g>
     <g id="text_30">
      <!-- ai_industry__E_AI_TNLG -->
      <g style="fill: #111111" transform="translate(425.9775 128.137785) scale(0.08 -0.08)">
       <use xlink:href="#MicrosoftYaHei-61"/>
       <use xlink:href="#MicrosoftYaHei-69" transform="translate(55.273438 0)"/>
       <use xlink:href="#MicrosoftYaHei-5f" transform="translate(81.884766 0)"/>
       <use xlink:href="#MicrosoftYaHei-69" transform="translate(126.708984 0)"/>
       <use xlink:href="#MicrosoftYaHei-6e" transform="translate(153.320312 0)"/>
       <use xlink:href="#MicrosoftYaHei-64" transform="translate(214.941406 0)"/>
       <use xlink:href="#MicrosoftYaHei-75" transform="translate(278.90625 0)"/>
       <use xlink:href="#MicrosoftYaHei-73" transform="translate(340.527344 0)"/>
       <use xlink:href="#MicrosoftYaHei-74" transform="translate(386.816406 0)"/>
       <use xlink:href="#MicrosoftYaHei-72" transform="translate(424.072266 0)"/>
       <use xlink:href="#MicrosoftYaHei-79" transform="translate(466.630859 0)"/>
       <use xlink:href="#MicrosoftYaHei-5f" transform="translate(519.560547 0)"/>
       <use xlink:href="#MicrosoftYaHei-5f" transform="translate(564.384766 0)"/>
       <use xlink:href="#MicrosoftYaHei-45" transform="translate(609.208984 0)"/>
       <use xlink:href="#MicrosoftYaHei-5f" transform="translate(664.189453 0)"/>
       <use xlink:href="#MicrosoftYaHei-41" transform="translate(709.013672 0)"/>
       <use xlink:href="#MicrosoftYaHei-49" transform="translate(779.375 0)"/>
       <use xlink:href="#MicrosoftYaHei-5f" transform="translate(808.769531 0)"/>
       <use xlink:href="#MicrosoftYaHei-54" transform="translate(853.59375 0)"/>
       <use xlink:href="#MicrosoftYaHei-4e" transform="translate(910.917969 0)"/>
       <use xlink:href="#MicrosoftYaHei-4c" transform="translate(992.216797 0)"/>
       <use xlink:href="#MicrosoftYaHei-47" transform="translate(1040.035156 0)"/>
      </g>
     </g>
    </g>
    <g id="ytick_16">
     <g id="line2d_28">
      <g>
       <use xlink:href="#m56f6dd6c04" x="522.1325" y="92.16448" style="fill: #111111; stroke: #111111; stroke-width: 0.8"/>
      </g>
     </g>
     <g id="text_31">
      <!-- ai_industry__E_AI_TML -->
      <g style="fill: #111111" transform="translate(430.33375 95.36198) scale(0.08 -0.08)">
       <use xlink:href="#MicrosoftYaHei-61"/>
       <use xlink:href="#MicrosoftYaHei-69" transform="translate(55.273438 0)"/>
       <use xlink:href="#MicrosoftYaHei-5f" transform="translate(81.884766 0)"/>
       <use xlink:href="#MicrosoftYaHei-69" transform="translate(126.708984 0)"/>
       <use xlink:href="#MicrosoftYaHei-6e" transform="translate(153.320312 0)"/>
       <use xlink:href="#MicrosoftYaHei-64" transform="translate(214.941406 0)"/>
       <use xlink:href="#MicrosoftYaHei-75" transform="translate(278.90625 0)"/>
       <use xlink:href="#MicrosoftYaHei-73" transform="translate(340.527344 0)"/>
       <use xlink:href="#MicrosoftYaHei-74" transform="translate(386.816406 0)"/>
       <use xlink:href="#MicrosoftYaHei-72" transform="translate(424.072266 0)"/>
       <use xlink:href="#MicrosoftYaHei-79" transform="translate(466.630859 0)"/>
       <use xlink:href="#MicrosoftYaHei-5f" transform="translate(519.560547 0)"/>
       <use xlink:href="#MicrosoftYaHei-5f" transform="translate(564.384766 0)"/>
       <use xlink:href="#MicrosoftYaHei-45" transform="translate(609.208984 0)"/>
       <use xlink:href="#MicrosoftYaHei-5f" transform="translate(664.189453 0)"/>
       <use xlink:href="#MicrosoftYaHei-41" transform="translate(709.013672 0)"/>
       <use xlink:href="#MicrosoftYaHei-49" transform="translate(779.375 0)"/>
       <use xlink:href="#MicrosoftYaHei-5f" transform="translate(808.769531 0)"/>
       <use xlink:href="#MicrosoftYaHei-54" transform="translate(853.59375 0)"/>
       <use xlink:href="#MicrosoftYaHei-4d" transform="translate(910.917969 0)"/>
       <use xlink:href="#MicrosoftYaHei-4c" transform="translate(1008.623047 0)"/>
      </g>
     </g>
    </g>
   </g>
   <g id="patch_22">
    <path d="M 522.1325 347.488 
L 522.1325 66.271594 
" style="fill: none; stroke: #111111; stroke-width: 0.8; stroke-linejoin: miter; stroke-linecap: square"/>
   </g>
   <g id="patch_23">
    <path d="M 522.1325 347.488 
L 791.995 347.488 
" style="fill: none; stroke: #111111; stroke-width: 0.8; stroke-linejoin: miter; stroke-linecap: square"/>
   </g>
   <g id="text_32">
    <!-- Stage 2 行业/区域验证层 -->
    <g style="fill: #111111" transform="translate(593.828359 60.271594) scale(0.11 -0.11)">
     <defs>
      <path id="MicrosoftYaHei-Bold-32" d="M 1500 841 
L 3553 841 
L 3553 0 
L 334 0 
L 334 359 
Q 334 738 473 1050 
Q 613 1363 856 1633 
Q 1100 1903 1613 2266 
Q 2081 2616 2268 2886 
Q 2456 3156 2456 3459 
Q 2456 4113 1744 4113 
Q 1119 4113 550 3613 
L 550 4513 
Q 1184 4922 1975 4922 
Q 2700 4922 3122 4551 
Q 3544 4181 3544 3531 
Q 3544 3169 3422 2876 
Q 3300 2584 3069 2328 
Q 2838 2072 2328 1713 
Q 1838 1363 1669 1172 
Q 1500 981 1500 841 
z
" transform="scale(0.015625)"/>
      <path id="MicrosoftYaHei-Bold-884c" d="M 1663 5347 
Q 2063 5072 2413 4809 
Q 1756 4047 669 3178 
Q 438 3528 113 3916 
Q 1163 4716 1663 5347 
z
M 2788 4903 
L 6038 4903 
L 6038 4091 
L 2788 4091 
L 2788 4903 
z
M 1763 3722 
L 2494 3253 
Q 2219 2850 1894 2463 
L 1894 -778 
L 1025 -778 
L 1025 1525 
Q 738 1247 425 978 
Q 300 1328 81 1847 
Q 1044 2678 1763 3722 
z
M 2581 3116 
L 6313 3116 
L 6313 2303 
L 5338 2303 
L 5338 291 
Q 5338 -209 5105 -473 
Q 4872 -738 4445 -766 
Q 4019 -794 3181 -803 
Q 3094 -391 2950 72 
Q 3600 28 3975 28 
Q 4431 28 4431 509 
L 4431 2303 
L 2581 2303 
L 2581 3116 
z
" transform="scale(0.015625)"/>
      <path id="MicrosoftYaHei-Bold-4e1a" d="M 1888 5216 
L 2800 5216 
L 2800 303 
L 3600 303 
L 3600 5216 
L 4500 5216 
L 4500 1838 
Q 5009 2850 5494 4172 
L 6300 3828 
Q 5825 2641 5163 1253 
L 4500 1563 
L 4500 303 
L 6300 303 
L 6300 -553 
L 125 -553 
L 125 303 
L 1888 303 
L 1888 1541 
L 1188 1241 
Q 675 2697 163 3916 
L 913 4259 
Q 1453 3047 1888 1922 
L 1888 5216 
z
" transform="scale(0.015625)"/>
      <path id="MicrosoftYaHei-Bold-2f" d="M 3100 4841 
L 747 -803 
L -156 -803 
L 2188 4841 
L 3100 4841 
z
" transform="scale(0.015625)"/>
      <path id="MicrosoftYaHei-Bold-533a" d="M 1363 266 
L 6219 266 
L 6219 -578 
L 475 -578 
L 475 4972 
L 6025 4972 
L 6025 4128 
L 1363 4128 
L 1363 266 
z
M 1600 3422 
L 2200 4034 
L 3584 2831 
Q 4119 3428 4581 4091 
L 5356 3578 
Q 4834 2872 4253 2238 
L 5656 941 
L 4919 291 
Q 4278 947 3619 1581 
Q 2913 891 2131 297 
Q 1975 491 1506 966 
Q 2288 1531 2969 2194 
Q 2294 2819 1600 3422 
z
" transform="scale(0.015625)"/>
      <path id="MicrosoftYaHei-Bold-57df" d="M 1938 4428 
L 3978 4428 
L 3956 5316 
L 4781 5316 
L 4806 4428 
L 5372 4428 
L 5000 4934 
L 5581 5284 
Q 5900 4916 6081 4678 
L 5669 4428 
L 6275 4428 
L 6275 3641 
L 4834 3641 
Q 4878 2544 4928 1866 
Q 5256 2534 5413 3278 
L 6113 3084 
Q 5784 1803 5094 734 
Q 5284 66 5463 66 
Q 5606 66 5619 1072 
Q 6056 941 6294 891 
Q 6294 -841 5475 -841 
Q 4856 -841 4506 -59 
Q 4181 -447 3800 -803 
Q 3594 -534 3294 -216 
Q 3297 -209 3303 -206 
L 1869 -416 
L 1819 -19 
Q 931 -147 113 -297 
L 88 541 
L 575 597 
L 575 2897 
L 138 2897 
L 138 3684 
L 575 3684 
L 575 5322 
L 1394 5322 
L 1394 3684 
L 1744 3684 
L 1744 2897 
L 1394 2897 
L 1394 709 
L 1844 778 
Q 1831 678 1834 419 
Q 2944 525 3856 641 
L 3875 347 
Q 4075 559 4253 784 
Q 4088 1681 4006 3641 
L 1938 3641 
L 1938 4428 
z
M 1950 3116 
L 3738 3116 
L 3738 947 
L 1950 947 
L 1950 3116 
z
M 3075 2528 
L 2613 2528 
L 2613 1534 
L 3075 1534 
L 3075 2528 
z
" transform="scale(0.015625)"/>
      <path id="MicrosoftYaHei-Bold-9a8c" d="M 1138 4053 
L 969 2491 
L 1419 2491 
L 1563 4241 
L 200 4241 
L 200 4991 
L 2369 4991 
L 2163 2491 
L 2525 2491 
Q 2463 691 2413 203 
Q 2369 -553 1838 -672 
Q 1581 -709 644 -709 
Q 588 -253 519 134 
Q 906 91 1350 78 
Q 1669 78 1694 378 
Q 1731 791 1763 1741 
L 181 1741 
L 400 4053 
L 1138 4053 
z
M 5544 2647 
L 3163 2647 
L 3163 2997 
Q 2944 2797 2706 2603 
Q 2525 2991 2300 3391 
Q 3313 4134 3925 5278 
L 4875 5278 
L 4738 5053 
Q 5469 3984 6381 3466 
Q 6163 3116 5950 2691 
Q 5738 2828 5544 2984 
L 5544 2647 
z
M 2556 116 
L 4694 116 
Q 5063 1253 5250 2303 
L 6025 2103 
Q 5775 1141 5438 116 
L 6213 116 
L 6213 -634 
L 2556 -634 
L 2556 116 
z
M 3263 2172 
Q 3569 1397 3856 503 
L 3175 259 
Q 2981 978 2625 1934 
L 3263 2172 
z
M 4425 2428 
Q 4644 1584 4806 753 
L 4113 584 
Q 3988 1366 3763 2278 
L 4425 2428 
z
M 75 1216 
Q 763 1278 1525 1378 
Q 1531 984 1538 628 
Q 838 541 175 428 
L 75 1216 
z
M 4300 4347 
Q 4013 3897 3544 3384 
L 5113 3384 
Q 4663 3859 4300 4347 
z
" transform="scale(0.015625)"/>
      <path id="MicrosoftYaHei-Bold-8bc1" d="M 994 5334 
Q 1356 4822 1756 4184 
Q 1463 4028 1000 3734 
Q 663 4341 306 4903 
L 994 5334 
z
M 1875 278 
L 2388 278 
L 2388 3397 
L 3231 3397 
L 3231 278 
L 3906 278 
L 3906 4091 
L 2075 4091 
L 2075 4916 
L 6225 4916 
L 6225 4091 
L 4750 4091 
L 4750 2678 
L 6075 2678 
L 6075 1859 
L 4750 1859 
L 4750 278 
L 6300 278 
L 6300 -559 
L 1875 -559 
L 1875 278 
z
M 2019 1384 
Q 2044 1116 2169 528 
Q 1575 109 838 -516 
L 450 172 
Q 606 366 613 641 
L 613 2628 
L 113 2628 
L 113 3441 
L 1463 3441 
L 1463 947 
L 2019 1384 
z
" transform="scale(0.015625)"/>
     </defs>
     <use xlink:href="#MicrosoftYaHei-Bold-53"/>
     <use xlink:href="#MicrosoftYaHei-Bold-74" transform="translate(57.40625 0)"/>
     <use xlink:href="#MicrosoftYaHei-Bold-61" transform="translate(98.8125 0)"/>
     <use xlink:href="#MicrosoftYaHei-Bold-67" transform="translate(156.576172 0)"/>
     <use xlink:href="#MicrosoftYaHei-Bold-65" transform="translate(223.03125 0)"/>
     <use xlink:href="#MicrosoftYaHei-Bold-20" transform="translate(281.234375 0)"/>
     <use xlink:href="#MicrosoftYaHei-Bold-32" transform="translate(311.019531 0)"/>
     <use xlink:href="#MicrosoftYaHei-Bold-20" transform="translate(372.689453 0)"/>
     <use xlink:href="#MicrosoftYaHei-Bold-884c" transform="translate(402.474609 0)"/>
     <use xlink:href="#MicrosoftYaHei-Bold-4e1a" transform="translate(502.474609 0)"/>
     <use xlink:href="#MicrosoftYaHei-Bold-2f" transform="translate(602.474609 0)"/>
     <use xlink:href="#MicrosoftYaHei-Bold-533a" transform="translate(649.740234 0)"/>
     <use xlink:href="#MicrosoftYaHei-Bold-57df" transform="translate(749.740234 0)"/>
     <use xlink:href="#MicrosoftYaHei-Bold-9a8c" transform="translate(849.740234 0)"/>
     <use xlink:href="#MicrosoftYaHei-Bold-8bc1" transform="translate(949.740234 0)"/>
     <use xlink:href="#MicrosoftYaHei-Bold-5c42" transform="translate(1049.740234 0)"/>
    </g>
   </g>
  </g>
  <g id="text_33">
   <!-- 机制变量重要性支持效率需求与部署准备度解释 -->
   <g style="fill: #111111" transform="translate(252.595 18.39125) scale(0.14 -0.14)">
    <defs>
     <path id="MicrosoftYaHei-Bold-53d8" d="M 231 4616 
L 2734 4616 
L 2525 5128 
L 3425 5353 
L 3741 4616 
L 6175 4616 
L 6175 3878 
L 4350 3878 
L 4350 2434 
L 3550 2434 
L 3550 3878 
L 2850 3878 
L 2850 2434 
L 2050 2434 
L 2050 3878 
L 231 3878 
L 231 4616 
z
M 1488 3778 
L 2019 3228 
Q 1338 2684 550 2184 
Q 325 2541 88 2828 
Q 844 3272 1488 3778 
z
M 4881 3728 
Q 5538 3328 6306 2778 
L 5769 2159 
Q 5119 2666 4406 3178 
L 4881 3728 
z
M 5300 2272 
L 5300 1566 
Q 4847 913 4144 422 
Q 5063 147 6288 84 
Q 6194 -84 5825 -822 
Q 4297 -663 3200 -116 
Q 2088 -634 544 -884 
Q 363 -497 94 -66 
Q 1359 84 2338 425 
Q 1741 894 1331 1534 
L 900 1534 
L 900 2272 
L 5300 2272 
z
M 3213 794 
Q 3834 1113 4300 1534 
L 2238 1534 
Q 2631 1100 3213 794 
z
" transform="scale(0.015625)"/>
     <path id="MicrosoftYaHei-Bold-91cf" d="M 725 5103 
L 5675 5103 
L 5675 3416 
L 725 3416 
L 725 5103 
z
M 4825 4666 
L 1575 4666 
L 1575 4447 
L 4825 4447 
L 4825 4666 
z
M 4825 3853 
L 4825 4072 
L 1575 4072 
L 1575 3853 
L 4825 3853 
z
M 138 3209 
L 6288 3209 
L 6288 2747 
L 138 2747 
L 138 3209 
z
M 113 -184 
L 2781 -184 
L 2781 53 
L 506 53 
L 506 491 
L 2781 491 
L 2781 716 
L 713 716 
L 713 2534 
L 5681 2534 
L 5681 716 
L 3606 716 
L 3606 491 
L 5925 491 
L 5925 53 
L 3606 53 
L 3606 -184 
L 6300 -184 
L 6300 -647 
L 113 -647 
L 113 -184 
z
M 4881 2097 
L 3606 2097 
L 3606 1816 
L 4881 1816 
L 4881 2097 
z
M 1513 1816 
L 2781 1816 
L 2781 2097 
L 1513 2097 
L 1513 1816 
z
M 4881 1153 
L 4881 1434 
L 3606 1434 
L 3606 1153 
L 4881 1153 
z
M 1513 1153 
L 2781 1153 
L 2781 1434 
L 1513 1434 
L 1513 1153 
z
" transform="scale(0.015625)"/>
     <path id="MicrosoftYaHei-Bold-91cd" d="M 106 -78 
L 2788 -78 
L 2788 241 
L 513 241 
L 513 766 
L 2788 766 
L 2788 1072 
L 731 1072 
L 731 3272 
L 2788 3272 
L 2788 3578 
L 125 3578 
L 125 4141 
L 2788 4141 
L 2788 4453 
L 663 4416 
Q 613 4691 544 4978 
Q 3200 5009 5731 5122 
Q 5738 5103 5850 4534 
L 3613 4475 
L 3613 4141 
L 6313 4141 
L 6313 3578 
L 3613 3578 
L 3613 3272 
L 5694 3272 
L 5694 1072 
L 3613 1072 
L 3613 766 
L 5925 766 
L 5925 241 
L 3613 241 
L 3613 -78 
L 6313 -78 
L 6313 -641 
L 106 -641 
L 106 -78 
z
M 4888 2753 
L 3613 2753 
L 3613 2397 
L 4888 2397 
L 4888 2753 
z
M 1538 2397 
L 2788 2397 
L 2788 2753 
L 1538 2753 
L 1538 2397 
z
M 4888 1591 
L 4888 1947 
L 3613 1947 
L 3613 1591 
L 4888 1591 
z
M 1538 1591 
L 2788 1591 
L 2788 1947 
L 1538 1947 
L 1538 1591 
z
" transform="scale(0.015625)"/>
     <path id="MicrosoftYaHei-Bold-8981" d="M 106 1741 
L 1947 1741 
Q 2088 1950 2203 2153 
L 413 2153 
L 413 3991 
L 2031 3991 
L 2031 4422 
L 219 4422 
L 219 5084 
L 6181 5084 
L 6181 4422 
L 4363 4422 
L 4363 3991 
L 5981 3991 
L 5981 2153 
L 3113 2153 
Q 2981 1938 2853 1741 
L 6288 1741 
L 6288 1078 
L 5094 1078 
Q 4769 650 4322 309 
L 6000 -116 
L 5619 -878 
Q 4469 -475 3503 -181 
Q 2322 -731 569 -878 
Q 475 -522 281 -141 
Q 1525 -84 2406 131 
Q 1591 350 938 472 
Q 1219 778 1459 1078 
L 106 1078 
L 106 1741 
z
M 2781 3991 
L 3613 3991 
L 3613 4422 
L 2781 4422 
L 2781 3991 
z
M 2781 2791 
L 3613 2791 
L 3613 3353 
L 2781 3353 
L 2781 2791 
z
M 1200 2791 
L 2031 2791 
L 2031 3353 
L 1200 3353 
L 1200 2791 
z
M 5194 2791 
L 5194 3353 
L 4363 3353 
L 4363 2791 
L 5194 2791 
z
M 2169 784 
Q 2678 694 3447 519 
Q 3872 756 4147 1078 
L 2397 1078 
Q 2281 922 2169 784 
z
" transform="scale(0.015625)"/>
     <path id="MicrosoftYaHei-Bold-6027" d="M 2250 216 
L 3975 216 
L 3975 1378 
L 2563 1378 
L 2563 2191 
L 3975 2191 
L 3975 3303 
L 3213 3303 
Q 3075 2734 2913 2272 
Q 2538 2491 2175 2684 
Q 2563 3684 2738 4947 
L 3506 4891 
Q 3447 4484 3381 4116 
L 3975 4116 
L 3975 5316 
L 4825 5316 
L 4825 4116 
L 6125 4116 
L 6125 3303 
L 4825 3303 
L 4825 2191 
L 6100 2191 
L 6100 1378 
L 4825 1378 
L 4825 216 
L 6313 216 
L 6313 -597 
L 2250 -597 
L 2250 216 
z
M 1788 5316 
L 1788 4456 
Q 2125 4316 2494 4134 
L 2175 3453 
L 1788 3713 
L 1788 -841 
L 950 -841 
L 950 5316 
L 1788 5316 
z
M 269 4103 
L 800 4041 
Q 719 3009 619 2178 
Q 350 2284 106 2316 
Q 225 3284 269 4103 
z
" transform="scale(0.015625)"/>
     <path id="MicrosoftYaHei-Bold-652f" d="M 5425 3066 
L 5425 2334 
Q 4878 1331 4031 625 
Q 5000 200 6256 84 
Q 5988 -353 5756 -828 
Q 4334 -634 3197 44 
Q 2081 -606 575 -872 
Q 331 -384 81 -16 
Q 1406 150 2391 616 
Q 1719 1175 1169 1941 
L 1725 2291 
L 738 2291 
L 738 3066 
L 2719 3066 
L 2719 3778 
L 263 3778 
L 263 4553 
L 2719 4553 
L 2719 5341 
L 3681 5341 
L 3681 4553 
L 6125 4553 
L 6125 3778 
L 3681 3778 
L 3681 3066 
L 5425 3066 
z
M 3194 1084 
Q 3891 1584 4350 2291 
L 1966 2291 
Q 2475 1572 3194 1084 
z
" transform="scale(0.015625)"/>
     <path id="MicrosoftYaHei-Bold-6301" d="M 138 4203 
L 788 4203 
L 788 5278 
L 1650 5278 
L 1650 4203 
L 2213 4203 
L 2213 3422 
L 1650 3422 
L 1650 2466 
L 2113 2553 
Q 2113 2272 2150 1728 
L 1650 1638 
L 1650 22 
Q 1650 -338 1508 -533 
Q 1366 -728 1075 -762 
Q 784 -797 300 -797 
Q 225 -391 131 34 
Q 466 16 606 16 
Q 788 16 788 266 
L 788 1466 
L 156 1328 
L 106 2216 
Q 422 2259 788 2319 
L 788 3422 
L 138 3422 
L 138 4203 
z
M 2213 3303 
L 3781 3303 
L 3781 3816 
L 2531 3816 
L 2531 4566 
L 3781 4566 
L 3781 5278 
L 4644 5278 
L 4644 4566 
L 5925 4566 
L 5925 3816 
L 4644 3816 
L 4644 3303 
L 6319 3303 
L 6319 2553 
L 2213 2553 
L 2213 3303 
z
M 2513 991 
L 2909 1291 
L 2250 1291 
L 2250 2041 
L 4656 2041 
L 4656 2428 
L 5519 2428 
L 5519 2041 
L 6250 2041 
L 6250 1291 
L 5519 1291 
L 5519 334 
Q 5519 -191 5297 -472 
Q 5075 -753 4692 -793 
Q 4309 -834 3600 -841 
Q 3519 -397 3425 -22 
Q 3875 -47 4238 -47 
Q 4656 -47 4656 466 
L 4656 1291 
L 3234 1291 
Q 3609 888 3888 516 
L 3231 53 
Q 2956 453 2513 991 
z
" transform="scale(0.015625)"/>
     <path id="MicrosoftYaHei-Bold-6548" d="M 1169 2122 
L 1806 1500 
Q 2019 1891 2131 2341 
L 2778 2159 
Q 2425 2663 1944 3203 
L 2550 3634 
Q 2841 3325 3084 3041 
Q 3653 4084 3956 5359 
L 4769 5247 
Q 4666 4809 4506 4366 
L 6294 4366 
L 6294 3534 
L 5931 3534 
Q 5778 1931 5213 928 
Q 5666 353 6319 22 
Q 6100 -278 5788 -809 
Q 5156 -378 4703 216 
Q 4141 -419 3331 -866 
Q 3069 -478 2756 -147 
Q 3644 325 4213 1000 
Q 3863 1697 3688 2556 
Q 3534 2281 3363 2003 
Q 3259 2166 3128 2363 
L 2838 2144 
L 2919 2122 
Q 2725 1472 2394 919 
Q 2791 519 3081 209 
L 2475 -372 
Q 2219 -59 1928 266 
Q 1375 -388 581 -866 
Q 350 -484 56 -91 
Q 856 300 1366 872 
Q 1013 1241 619 1628 
L 1169 2122 
z
M 4713 1772 
Q 5038 2481 5147 3534 
L 4256 3534 
Q 4378 2525 4713 1772 
z
M 200 4553 
L 1388 4553 
Q 1294 4847 1163 5178 
L 2000 5359 
Q 2163 4922 2259 4553 
L 3325 4553 
L 3325 3778 
L 200 3778 
L 200 4553 
z
M 950 3609 
L 1663 3272 
Q 1200 2441 625 1872 
Q 269 2284 75 2466 
Q 588 2984 950 3609 
z
" transform="scale(0.015625)"/>
     <path id="MicrosoftYaHei-Bold-7387" d="M 213 4766 
L 2719 4766 
L 2613 5303 
L 3588 5341 
Q 3631 5119 3684 4766 
L 6200 4766 
L 6200 4028 
L 3447 4028 
L 2775 3391 
L 3391 3403 
Q 3672 3675 3969 3991 
L 4606 3622 
Q 3894 2928 2919 2122 
L 3684 2172 
Q 3588 2322 3500 2447 
L 4069 2772 
Q 4506 2203 4888 1603 
L 4263 1253 
L 4063 1581 
Q 2722 1488 1938 1397 
L 1681 2053 
Q 2163 2328 2722 2797 
Q 2322 2766 2013 2728 
L 1719 3309 
Q 2050 3463 2519 4028 
L 213 4028 
L 213 4766 
z
M 5944 3484 
L 5119 2803 
Q 5609 2513 6188 2141 
L 5725 1472 
Q 5125 1972 4488 2416 
L 4800 2844 
L 4500 3216 
Q 5044 3616 5438 3966 
L 5944 3484 
z
M 375 3472 
L 856 3959 
Q 1225 3672 1650 3272 
L 1144 2759 
Q 713 3191 375 3472 
z
M 1569 2941 
L 1950 2372 
L 544 1372 
L 175 2122 
Q 700 2397 1569 2941 
z
M 88 1066 
L 2763 1066 
L 2763 1341 
L 3638 1341 
L 3638 1066 
L 6288 1066 
L 6288 328 
L 3638 328 
L 3638 -872 
L 2763 -872 
L 2763 328 
L 88 328 
L 88 1066 
z
" transform="scale(0.015625)"/>
     <path id="MicrosoftYaHei-Bold-9700" d="M 313 4253 
L 2819 4253 
L 2819 4516 
L 588 4516 
L 588 5109 
L 5813 5109 
L 5813 4516 
L 3581 4516 
L 3581 4253 
L 6088 4253 
L 6088 2966 
L 5400 2966 
L 5400 3678 
L 3581 3678 
L 3581 2316 
L 2819 2316 
L 2819 3678 
L 1000 3678 
L 1000 2966 
L 313 2966 
L 313 4253 
z
M 1163 3434 
L 2538 3434 
L 2538 3047 
L 1163 3047 
L 1163 3434 
z
M 3875 3434 
L 5238 3434 
L 5238 3047 
L 3875 3047 
L 3875 3434 
z
M 913 2797 
L 2538 2797 
L 2538 2403 
L 913 2403 
L 913 2797 
z
M 3875 2797 
L 5488 2797 
L 5488 2403 
L 3875 2403 
L 3875 2797 
z
M 1444 -797 
L 669 -797 
L 669 1191 
L 2466 1191 
L 2581 1553 
L 175 1553 
L 175 2141 
L 6225 2141 
L 6225 1553 
L 3322 1553 
L 3203 1191 
L 5750 1191 
L 5750 -134 
Q 5750 -834 5063 -834 
L 4438 -834 
Q 4394 -459 4331 -109 
Q 4569 -122 4763 -122 
Q 4981 -122 4981 141 
L 4981 616 
L 4306 616 
L 4306 -647 
L 3550 -647 
L 3550 616 
L 2875 616 
L 2875 -647 
L 2119 -647 
L 2119 616 
L 1444 616 
L 1444 -797 
z
" transform="scale(0.015625)"/>
     <path id="MicrosoftYaHei-Bold-6c42" d="M 6119 2716 
L 4691 1650 
Q 5353 1041 6306 722 
Q 6050 316 5788 -178 
Q 4369 459 3600 1766 
L 3600 309 
Q 3600 -191 3372 -461 
Q 3144 -731 2651 -764 
Q 2159 -797 1700 -797 
Q 1606 -297 1475 159 
Q 1900 134 2206 134 
Q 2725 134 2725 641 
L 2725 1216 
Q 1434 544 506 9 
L 94 834 
Q 1531 1438 2725 2081 
L 2725 3516 
L 200 3516 
L 200 4291 
L 2725 4291 
L 2725 5328 
L 3600 5328 
L 3600 4291 
L 4950 4291 
Q 4581 4578 4169 4847 
L 4719 5347 
Q 5175 5066 5656 4703 
L 5203 4291 
L 6213 4291 
L 6213 3516 
L 3600 3516 
L 3600 3294 
Q 3828 2694 4178 2219 
Q 4894 2763 5506 3359 
L 6119 2716 
z
M 1044 3303 
Q 1681 2841 2263 2341 
L 1688 1759 
Q 1144 2253 513 2753 
L 1044 3303 
z
" transform="scale(0.015625)"/>
     <path id="MicrosoftYaHei-Bold-4e0e" d="M 6138 3747 
L 2000 3747 
L 1956 3041 
L 5838 3041 
L 5738 541 
Q 5709 -169 5351 -453 
Q 4994 -738 4381 -741 
L 3031 -741 
Q 2956 -359 2813 166 
Q 3463 134 4081 134 
Q 4731 134 4784 526 
Q 4838 919 4863 2234 
L 969 2234 
L 1144 5272 
L 2094 5272 
L 2050 4566 
L 6138 4566 
L 6138 3747 
z
M 4456 766 
L 181 766 
L 181 1584 
L 4456 1584 
L 4456 766 
z
" transform="scale(0.015625)"/>
     <path id="MicrosoftYaHei-Bold-90e8" d="M 3488 3941 
L 2666 3941 
L 3344 3666 
Q 3141 3347 2903 3003 
L 3625 3003 
L 3625 2303 
L 119 2303 
L 119 3003 
L 866 3003 
Q 684 3284 450 3591 
L 1059 3941 
L 263 3941 
L 263 4641 
L 1475 4641 
Q 1375 4931 1256 5191 
L 2194 5347 
Q 2316 5028 2422 4641 
L 3488 4641 
L 3488 3941 
z
M 1706 3241 
L 1278 3003 
L 1969 3003 
Q 2278 3475 2484 3941 
L 1159 3941 
Q 1525 3522 1706 3241 
z
M 5500 2716 
Q 6294 1922 6294 997 
Q 6294 481 6017 192 
Q 5741 -97 4875 -84 
Q 4831 359 4719 816 
Q 4959 778 5066 778 
Q 5450 778 5450 1159 
Q 5450 1859 4700 2641 
Q 5025 3409 5313 4291 
L 4631 4291 
L 4631 -847 
L 3831 -847 
L 3831 5016 
L 6175 5016 
L 6175 4416 
Q 5956 3816 5500 2716 
z
M 400 -703 
L 400 1828 
L 3344 1828 
L 3344 -666 
L 2556 -666 
L 2556 -347 
L 1188 -347 
L 1188 -703 
L 400 -703 
z
M 2556 1128 
L 1188 1128 
L 1188 353 
L 2556 353 
L 2556 1128 
z
" transform="scale(0.015625)"/>
     <path id="MicrosoftYaHei-Bold-7f72" d="M 150 2472 
L 2300 2472 
L 2300 2766 
L 656 2766 
L 656 3341 
L 2300 3341 
L 2300 3628 
L 469 3628 
L 469 5109 
L 5931 5109 
L 5931 3628 
L 3150 3628 
L 3150 3341 
L 4644 3341 
L 4644 2978 
Q 5069 3250 5456 3553 
L 6031 3084 
Q 5578 2772 5028 2472 
L 6319 2472 
L 6319 1884 
L 3859 1884 
Q 3503 1719 3113 1559 
L 5644 1559 
L 5644 -847 
L 4781 -847 
L 4781 -628 
L 1869 -628 
L 1869 -847 
L 1019 -847 
L 1019 794 
L 356 578 
Q 200 1091 94 1359 
Q 1306 1547 2334 1884 
L 150 1884 
L 150 2472 
z
M 2806 4166 
L 3594 4166 
L 3594 4572 
L 2806 4572 
L 2806 4166 
z
M 5119 4166 
L 5119 4572 
L 4331 4572 
L 4331 4166 
L 5119 4166 
z
M 1281 4166 
L 2069 4166 
L 2069 4572 
L 1281 4572 
L 1281 4166 
z
M 4297 2766 
L 3150 2766 
L 3150 2472 
L 3763 2472 
Q 4038 2613 4297 2766 
z
M 4781 1009 
L 1869 1009 
L 1869 697 
L 4781 697 
L 4781 1009 
z
M 1869 -78 
L 4781 -78 
L 4781 222 
L 1869 222 
L 1869 -78 
z
" transform="scale(0.015625)"/>
     <path id="MicrosoftYaHei-Bold-51c6" d="M 2594 5328 
L 3406 5116 
Q 3250 4675 3066 4266 
L 4350 4266 
Q 4100 4581 3781 4941 
L 4406 5384 
Q 4819 4966 5175 4541 
L 4778 4266 
L 6181 4266 
L 6181 3591 
L 4906 3591 
L 4906 2916 
L 6131 2916 
L 6131 2272 
L 4906 2272 
L 4906 1597 
L 6131 1597 
L 6131 953 
L 4906 953 
L 4906 266 
L 6250 266 
L 6250 -397 
L 2963 -397 
L 2963 -847 
L 2113 -847 
L 2113 2588 
Q 1941 2350 1756 2122 
Q 1550 2603 1356 2959 
Q 2188 3959 2594 5328 
z
M 2963 2916 
L 4056 2916 
L 4056 3591 
L 2963 3591 
L 2963 2916 
z
M 2963 1597 
L 4056 1597 
L 4056 2272 
L 2963 2272 
L 2963 1597 
z
M 2963 266 
L 4056 266 
L 4056 953 
L 2963 953 
L 2963 266 
z
M 731 5022 
Q 1200 4422 1700 3709 
L 956 3203 
Q 525 3903 38 4572 
L 731 5022 
z
M 925 2472 
Q 1344 2241 1738 2059 
L 825 -609 
Q 481 -353 44 -109 
Q 475 966 925 2472 
z
" transform="scale(0.015625)"/>
     <path id="MicrosoftYaHei-Bold-5907" d="M 5669 4847 
L 5669 4203 
Q 5119 3644 4275 3213 
Q 5159 3019 6306 2972 
Q 6088 2528 5944 2172 
Q 4325 2325 3194 2750 
Q 2184 2391 884 2153 
L 5600 2153 
L 5600 -828 
L 4738 -828 
L 4738 -584 
L 1663 -584 
L 1663 -828 
L 800 -828 
L 800 2138 
Q 609 2103 413 2072 
Q 269 2416 88 2816 
Q 1294 2978 2219 3219 
Q 1797 3481 1484 3800 
Q 1091 3469 663 3209 
Q 481 3422 119 3759 
Q 1156 4384 1900 5347 
L 2794 5247 
Q 2647 5041 2494 4847 
L 5669 4847 
z
M 3206 3534 
Q 3959 3825 4431 4197 
L 2116 4197 
Q 2550 3803 3206 3534 
z
M 4738 1522 
L 3606 1522 
L 3606 1072 
L 4738 1072 
L 4738 1522 
z
M 1663 1072 
L 2794 1072 
L 2794 1522 
L 1663 1522 
L 1663 1072 
z
M 3606 47 
L 4738 47 
L 4738 497 
L 3606 497 
L 3606 47 
z
M 1663 47 
L 2794 47 
L 2794 497 
L 1663 497 
L 1663 47 
z
" transform="scale(0.015625)"/>
     <path id="MicrosoftYaHei-Bold-5ea6" d="M 5656 1697 
L 5656 1022 
Q 5156 447 4656 97 
Q 5344 -34 6306 -66 
Q 6119 -428 5938 -822 
Q 4556 -653 3719 -353 
Q 2825 -653 1494 -872 
Q 1338 -522 1088 -178 
Q 2100 -128 2888 78 
Q 2369 453 1938 1022 
L 1538 1022 
L 1538 1697 
L 5656 1697 
z
M 1325 2478 
Q 1338 134 700 -884 
Q 356 -553 19 -297 
Q 550 697 525 2591 
L 525 4772 
L 3013 4772 
Q 2944 4953 2831 5209 
L 3869 5359 
Q 3981 5072 4094 4772 
L 6256 4772 
L 6256 4072 
L 1325 4072 
L 1325 2478 
z
M 1463 3684 
L 2144 3684 
L 2144 3947 
L 2944 3947 
L 2944 3684 
L 4494 3684 
L 4494 3947 
L 5294 3947 
L 5294 3684 
L 6144 3684 
L 6144 3009 
L 5294 3009 
L 5294 1991 
L 2144 1991 
L 2144 3009 
L 1463 3009 
L 1463 3684 
z
M 3756 378 
Q 4325 641 4725 1022 
L 2825 1022 
Q 3225 622 3756 378 
z
M 4494 2628 
L 4494 3009 
L 2944 3009 
L 2944 2628 
L 4494 2628 
z
" transform="scale(0.015625)"/>
     <path id="MicrosoftYaHei-Bold-89e3" d="M 3188 953 
L 4475 953 
L 4475 1641 
L 3888 1641 
Q 3769 1331 3619 1078 
Q 3288 1263 3013 1381 
L 3013 47 
Q 3013 -316 2888 -517 
Q 2763 -719 2517 -758 
Q 2272 -797 1963 -797 
L 1884 -403 
L 1406 -403 
L 1406 778 
L 1034 778 
Q 941 -281 656 -897 
Q 350 -516 69 -259 
Q 419 541 419 2078 
L 419 3113 
Q 359 3053 300 2997 
Q 225 3403 81 3866 
Q 725 4522 1075 5359 
L 1838 5259 
Q 1759 5072 1672 4891 
L 2806 4891 
L 2806 4303 
L 2488 3734 
L 3013 3734 
L 3013 1541 
Q 3384 2147 3488 2803 
L 4169 2709 
Q 4134 2513 4091 2328 
L 4475 2328 
L 4475 2853 
L 5263 2853 
L 5263 2328 
L 6131 2328 
L 6131 1641 
L 5263 1641 
L 5263 953 
L 6281 953 
L 6281 266 
L 5263 266 
L 5263 -822 
L 4475 -822 
L 4475 266 
L 3188 266 
L 3188 953 
z
M 963 3734 
L 1697 3734 
L 2000 4278 
L 1338 4278 
Q 1166 3997 963 3734 
z
M 2363 3134 
L 2006 3134 
L 2006 2541 
L 2363 2541 
L 2363 3134 
z
M 1081 2541 
L 1406 2541 
L 1406 3134 
L 1081 3134 
L 1081 2541 
z
M 2006 1366 
L 2363 1366 
L 2363 1953 
L 2006 1953 
L 2006 1366 
z
M 1072 1366 
L 1406 1366 
L 1406 1953 
L 1081 1953 
Q 1081 1909 1072 1366 
z
M 2363 778 
L 2006 778 
L 2006 -81 
Q 2231 -91 2297 -22 
Q 2363 47 2363 247 
L 2363 778 
z
M 4581 2978 
Q 4522 3366 4416 3697 
Q 4206 3203 3581 2816 
Q 3338 3153 3019 3484 
Q 3725 3841 3775 4416 
L 3194 4416 
L 3194 5097 
L 6119 5097 
Q 6103 3772 5973 3492 
Q 5844 3213 5614 3095 
Q 5384 2978 4581 2978 
z
M 4428 3725 
Q 4741 3709 4894 3709 
Q 5122 3709 5198 3821 
Q 5275 3934 5275 4416 
L 4581 4416 
Q 4544 4019 4428 3725 
z
" transform="scale(0.015625)"/>
     <path id="MicrosoftYaHei-Bold-91ca" d="M 100 747 
Q 584 1394 938 2191 
L 150 2191 
L 150 2891 
L 1025 2891 
L 1025 4284 
L 225 4216 
Q 169 4559 100 4916 
Q 1306 4978 2525 5128 
L 2675 4453 
L 1775 4353 
L 1775 3263 
Q 2050 3753 2231 4266 
L 2806 4041 
Q 2525 3478 2269 3022 
L 1775 3250 
L 1775 2891 
L 2613 2891 
L 2613 2191 
L 1775 2191 
L 1775 2022 
Q 2300 1650 2700 1334 
L 2225 741 
Q 2003 966 1775 1184 
L 1775 -809 
L 1025 -809 
L 1025 944 
Q 713 266 369 -216 
Q 231 328 100 747 
z
M 5988 5066 
L 5988 4303 
Q 5650 3747 5156 3319 
Q 5631 3150 6300 3059 
Q 6131 2684 5988 2303 
Q 5078 2459 4431 2816 
Q 3844 2494 3038 2253 
Q 2888 2622 2656 2997 
Q 3241 3144 3706 3334 
Q 3353 3659 3088 4078 
L 3500 4372 
L 2838 4372 
L 2838 5066 
L 5988 5066 
z
M 4422 3700 
Q 4878 3997 5125 4372 
L 3709 4372 
Q 4063 3956 4422 3700 
z
M 94 3984 
L 550 4184 
Q 788 3716 1000 3266 
L 463 3028 
Q 319 3459 94 3984 
z
M 2500 816 
L 4013 816 
L 4013 1266 
L 2775 1266 
L 2775 1991 
L 4013 1991 
L 4013 2434 
L 4838 2434 
L 4838 1991 
L 6050 1991 
L 6050 1266 
L 4838 1266 
L 4838 816 
L 6250 816 
L 6250 91 
L 4838 91 
L 4838 -822 
L 4013 -822 
L 4013 91 
L 2500 91 
L 2500 816 
z
" transform="scale(0.015625)"/>
    </defs>
    <use xlink:href="#MicrosoftYaHei-Bold-673a"/>
    <use xlink:href="#MicrosoftYaHei-Bold-5236" transform="translate(100 0)"/>
    <use xlink:href="#MicrosoftYaHei-Bold-53d8" transform="translate(200 0)"/>
    <use xlink:href="#MicrosoftYaHei-Bold-91cf" transform="translate(300 0)"/>
    <use xlink:href="#MicrosoftYaHei-Bold-91cd" transform="translate(400 0)"/>
    <use xlink:href="#MicrosoftYaHei-Bold-8981" transform="translate(500 0)"/>
    <use xlink:href="#MicrosoftYaHei-Bold-6027" transform="translate(600 0)"/>
    <use xlink:href="#MicrosoftYaHei-Bold-652f" transform="translate(700 0)"/>
    <use xlink:href="#MicrosoftYaHei-Bold-6301" transform="translate(800 0)"/>
    <use xlink:href="#MicrosoftYaHei-Bold-6548" transform="translate(900 0)"/>
    <use xlink:href="#MicrosoftYaHei-Bold-7387" transform="translate(1000 0)"/>
    <use xlink:href="#MicrosoftYaHei-Bold-9700" transform="translate(1100 0)"/>
    <use xlink:href="#MicrosoftYaHei-Bold-6c42" transform="translate(1200 0)"/>
    <use xlink:href="#MicrosoftYaHei-Bold-4e0e" transform="translate(1300 0)"/>
    <use xlink:href="#MicrosoftYaHei-Bold-90e8" transform="translate(1400 0)"/>
    <use xlink:href="#MicrosoftYaHei-Bold-7f72" transform="translate(1500 0)"/>
    <use xlink:href="#MicrosoftYaHei-Bold-51c6" transform="translate(1600 0)"/>
    <use xlink:href="#MicrosoftYaHei-Bold-5907" transform="translate(1700 0)"/>
    <use xlink:href="#MicrosoftYaHei-Bold-5ea6" transform="translate(1800 0)"/>
    <use xlink:href="#MicrosoftYaHei-Bold-89e3" transform="translate(1900 0)"/>
    <use xlink:href="#MicrosoftYaHei-Bold-91ca" transform="translate(2000 0)"/>
   </g>
  </g>
 </g>
 <defs>
  <clipPath id="pf6b99fcc0f">
   <rect x="124.3325" y="66.271594" width="269.8625" height="281.216406"/>
  </clipPath>
  <clipPath id="p1d4e4340be">
   <rect x="522.1325" y="66.271594" width="269.8625" height="281.216406"/>
  </clipPath>
 </defs>
</svg>
